<svg width="120" height="37" viewBox="0 0 120 37" fill="none" xmlns="http://www.w3.org/2000/svg">
<path d="M6.04666 29.5821C6.04666 30.2023 6.1862 30.7449 6.46527 31.2101C6.77536 31.6442 7.19397 31.9853 7.72112 32.2333C8.24826 32.4504 8.85293 32.5589 9.53512 32.5589C10.4344 32.5589 11.2561 32.3729 12.0003 32.0008C12.7755 31.6287 13.3957 31.086 13.8608 30.3728C14.3259 29.6596 14.5585 28.7759 14.5585 27.7216L15.3027 30.5124C15.3027 31.8767 14.9151 33.0241 14.1399 33.9543C13.3957 34.8846 12.4189 35.5823 11.2096 36.0474C10.0312 36.5125 8.79091 36.7451 7.48855 36.7451C6.12418 36.7451 4.86834 36.4815 3.72102 35.9544C2.60471 35.4272 1.70547 34.6675 1.02328 33.6752C0.341094 32.652 0 31.4116 0 29.9542C0 28.5898 0.325589 27.396 0.976768 26.3727C1.62795 25.3495 2.57371 24.5742 3.81405 24.0471C5.05439 23.4889 6.5738 23.2099 8.3723 23.2099C9.70566 23.2099 10.884 23.3494 11.9073 23.6285C12.9616 23.8765 13.8453 24.2021 14.5585 24.6052C15.3027 25.0084 15.8298 25.396 16.1399 25.7681V28.6519C15.3027 28.0007 14.3569 27.5355 13.3026 27.2565C12.2484 26.9464 11.1476 26.7913 10.0002 26.7913C9.06999 26.7913 8.31028 26.8999 7.72112 27.1169C7.16296 27.334 6.74435 27.6441 6.46527 28.0472C6.1862 28.4503 6.04666 28.9619 6.04666 29.5821ZM3.67451 20.9307L1.4419 16.8376C2.5582 16.2485 3.92258 15.6903 5.53502 15.1632C7.14746 14.605 8.94595 14.3259 10.9305 14.3259C12.76 14.3259 14.3879 14.5895 15.8143 15.1166C17.2407 15.6438 18.357 16.419 19.1633 17.4423C20.0005 18.4346 20.4191 19.6439 20.4191 21.0703V36.2799H14.5585V22.4191C14.5585 21.83 14.45 21.3338 14.2329 20.9307C14.0469 20.4966 13.7678 20.14 13.3957 19.8609C13.0236 19.5819 12.5739 19.3803 12.0468 19.2563C11.5197 19.1322 10.9305 19.0702 10.2793 19.0702C9.28705 19.0702 8.34129 19.1943 7.44204 19.4423C6.54279 19.6594 5.76758 19.9075 5.1164 20.1865C4.46522 20.4656 3.98459 20.7137 3.67451 20.9307Z" fill="white"/>
<path d="M31 14.8841V36.2799H25.0464V14.8841H31ZM37.2792 21.2098C36.8761 20.8377 36.4575 20.5586 36.0234 20.3726C35.6203 20.1555 35.1087 20.047 34.4885 20.047C33.7443 20.047 33.1086 20.2486 32.5815 20.6517C32.0543 21.0548 31.6512 21.6284 31.3721 22.3726C31.1241 23.0858 31 23.9541 31 24.9774L29.3256 23.2564C29.3256 21.5509 29.6512 20.047 30.3023 18.7446C30.9535 17.4113 31.7907 16.357 32.814 15.5818C33.8683 14.8066 34.9691 14.419 36.1164 14.419C36.8916 14.419 37.6358 14.5585 38.349 14.8376C39.0622 15.1166 39.6204 15.5198 40.0235 16.0469L37.2792 21.2098Z" fill="white"/>
<path d="M46.2097 25.582C46.2097 26.8224 46.4733 27.9077 47.0004 28.8379C47.5586 29.7682 48.3028 30.4969 49.233 31.024C50.1633 31.5201 51.2021 31.7682 52.3494 31.7682C53.2796 31.7682 54.1789 31.6287 55.0471 31.3496C55.9154 31.0705 56.6906 30.6829 57.3728 30.1868C58.086 29.6596 58.6286 29.055 59.0007 28.3728V34.559C58.2565 35.2412 57.2797 35.7838 56.0704 36.1869C54.8921 36.559 53.5277 36.7451 51.9773 36.7451C49.6826 36.7451 47.6206 36.2799 45.7911 35.3497C43.9926 34.4194 42.5662 33.1171 41.5119 31.4426C40.4886 29.7372 39.977 27.7836 39.977 25.582C39.977 23.3494 40.4886 21.3959 41.5119 19.7214C42.5662 18.0469 43.9926 16.7446 45.7911 15.8143C47.6206 14.8841 49.6826 14.419 51.9773 14.419C53.5277 14.419 54.8921 14.6205 56.0704 15.0236C57.2797 15.4267 58.2565 15.9384 59.0007 16.5585V22.7912C58.6286 22.1091 58.0704 21.5199 57.3262 21.0238C56.613 20.4966 55.8223 20.0935 54.9541 19.8144C54.0859 19.5043 53.2176 19.3493 52.3494 19.3493C51.2021 19.3493 50.1633 19.6284 49.233 20.1865C48.3028 20.7447 47.5586 21.4889 47.0004 22.4191C46.4733 23.3494 46.2097 24.4037 46.2097 25.582Z" fill="white"/>
<path d="M69.3861 0V36.2799H63.3395V0H69.3861ZM77.2003 23.2564C77.2003 22.3261 77.0762 21.5354 76.8282 20.8842C76.6111 20.202 76.239 19.7059 75.7119 19.3958C75.1847 19.0547 74.5025 18.8842 73.6653 18.8842C72.8281 18.8842 72.0839 19.0702 71.4327 19.4423C70.8125 19.7834 70.3164 20.2796 69.9443 20.9307C69.5722 21.5509 69.3861 22.3261 69.3861 23.2564H68.1768C68.1768 21.5509 68.4714 20.016 69.0605 18.6516C69.6497 17.2872 70.5179 16.2019 71.6652 15.3957C72.8126 14.5895 74.2234 14.1864 75.8979 14.1864C77.5724 14.1864 78.9522 14.512 80.0375 15.1632C81.1228 15.7833 81.9291 16.6981 82.4562 17.9074C82.9833 19.1167 83.2469 20.6207 83.2469 22.4191V36.2799H77.2003V23.2564Z" fill="white"/>
<path d="M87.9767 6.60481C87.9767 5.61254 88.3178 4.79081 89 4.13963C89.6822 3.48846 90.5349 3.16287 91.5582 3.16287C92.5815 3.16287 93.4342 3.48846 94.1164 4.13963C94.8296 4.79081 95.1862 5.61254 95.1862 6.60481C95.1862 7.56607 94.8296 8.37229 94.1164 9.02347C93.4342 9.67465 92.5815 10.0002 91.5582 10.0002C90.5349 10.0002 89.6822 9.67465 89 9.02347C88.3178 8.37229 87.9767 7.56607 87.9767 6.60481ZM88.6279 14.8841H94.442V36.2799H88.6279V14.8841Z" fill="white"/>
<path d="M113.767 23.2564C113.767 22.3261 113.643 21.5354 113.395 20.8842C113.178 20.202 112.806 19.7059 112.279 19.3958C111.752 19.0547 111.07 18.8842 110.232 18.8842C109.395 18.8842 108.651 19.0702 108 19.4423C107.38 19.7834 106.883 20.2796 106.511 20.9307C106.139 21.5819 105.953 22.3571 105.953 23.2564V36.2799H99.9065V14.8841H105.953V18.14C106.604 16.9306 107.473 16.0159 108.558 15.3957C109.643 14.7445 110.946 14.419 112.465 14.419C114.17 14.419 115.566 14.7445 116.651 15.3957C117.767 16.0469 118.605 16.9927 119.163 18.233C119.721 19.4423 120 20.8997 120 22.6052V36.2799H113.767V23.2564Z" fill="white"/>
</svg>
