<svg width="120" height="40" viewBox="0 0 120 40" fill="none" xmlns="http://www.w3.org/2000/svg">
<path d="M36.5601 13.2464V26.4928L24.3812 33.116V19.8696L36.5601 13.2464Z" fill="white"/>
<path d="M24.3812 19.8696V33.116L12.1789 39.7392V26.4928L24.3812 19.8696Z" fill="white"/>
<path d="M12.1789 39.7392L0 33.116V19.8696L12.1789 26.4928V39.7392Z" fill="white"/>
<path d="M0 6.6232L12.1789 0L24.3812 6.6232L12.1789 13.2464L0 6.6232Z" fill="white"/>
<path d="M12.1789 26.4928L0 19.8696V6.6232L12.1789 13.2464V26.4928Z" fill="white"/>
<path d="M53.675 17.0879V15.8686L61.1532 4.70548H53.5937V3.21526H63.1583V4.43453L55.6801 15.5976H63.2395V17.0879H53.675Z" fill="white"/>
<path d="M75.1613 3.21526H76.8412V12.4004C76.8412 13.3488 76.6177 14.1955 76.1706 14.9406C75.728 15.6812 75.1026 16.266 74.2943 16.695C73.4859 17.1195 72.5376 17.3317 71.4493 17.3317C70.361 17.3317 69.4127 17.1195 68.6043 16.695C67.796 16.266 67.1683 15.6812 66.7212 14.9406C66.2787 14.1955 66.0574 13.3488 66.0574 12.4004V3.21526H67.7373V12.265C67.7373 12.9423 67.8863 13.5452 68.1844 14.0736C68.4824 14.5974 68.9069 15.0106 69.4578 15.3131C70.0133 15.6112 70.6771 15.7602 71.4493 15.7602C72.2215 15.7602 72.8853 15.6112 73.4408 15.3131C73.9962 15.0106 74.4207 14.5974 74.7142 14.0736C75.0123 13.5452 75.1613 12.9423 75.1613 12.265V3.21526Z" fill="white"/>
<path d="M80.1959 3.21526H82.2009L86.9154 14.7306H87.078L91.7925 3.21526H93.7975V17.0879H92.226V6.54794H92.0905L87.7554 17.0879H86.238L81.9029 6.54794H81.7674V17.0879H80.1959V3.21526Z" fill="white"/>
<path d="M97.7348 17.0879H95.9736L101.067 3.21526H102.802L107.895 17.0879H106.134L101.989 5.40995H101.88L97.7348 17.0879ZM98.385 11.6689H105.484V13.1591H98.385V11.6689Z" fill="white"/>
<path d="M110.056 17.0879V3.21526H114.744C115.827 3.21526 116.717 3.40041 117.412 3.77071C118.108 4.13649 118.623 4.64 118.957 5.28125C119.291 5.9225 119.458 6.6518 119.458 7.46917C119.458 8.28653 119.291 9.01132 118.957 9.64353C118.623 10.2757 118.11 10.7725 117.419 11.1338C116.728 11.4905 115.845 11.6689 114.771 11.6689H110.977V10.1516H114.716C115.457 10.1516 116.053 10.0432 116.505 9.82642C116.961 9.60966 117.291 9.30259 117.494 8.9052C117.701 8.50329 117.805 8.02461 117.805 7.46917C117.805 6.91372 117.701 6.42827 117.494 6.01281C117.286 5.59736 116.954 5.27674 116.498 5.05094C116.042 4.82064 115.439 4.70548 114.689 4.70548H111.736V17.0879H110.056ZM116.586 10.856L120 17.0879H118.049L114.689 10.856H116.586Z" fill="white"/>
<path d="M65.2988 26.6253H63.6189C63.5195 26.1421 63.3457 25.7176 63.0973 25.3518C62.8534 24.986 62.5554 24.679 62.2032 24.4306C61.8554 24.1777 61.4693 23.988 61.0448 23.8616C60.6204 23.7351 60.1778 23.6719 59.7172 23.6719C58.8773 23.6719 58.1163 23.8842 57.4345 24.3087C56.7571 24.7331 56.2174 25.3586 55.8155 26.185C55.4181 27.0114 55.2194 28.0252 55.2194 29.2264C55.2194 30.4276 55.4181 31.4414 55.8155 32.2678C56.2174 33.0942 56.7571 33.7196 57.4345 34.1441C58.1163 34.5686 58.8773 34.7808 59.7172 34.7808C60.1778 34.7808 60.6204 34.7176 61.0448 34.5912C61.4693 34.4647 61.8554 34.2773 62.2032 34.029C62.5554 33.7761 62.8534 33.4667 63.0973 33.101C63.3457 32.7307 63.5195 32.3062 63.6189 31.8275H65.2988C65.1723 32.5365 64.942 33.171 64.6078 33.7309C64.2737 34.2909 63.8582 34.7673 63.3615 35.1602C62.8647 35.5485 62.307 35.8443 61.6884 36.0475C61.0742 36.2507 60.4172 36.3523 59.7172 36.3523C58.5341 36.3523 57.4819 36.0633 56.5606 35.4853C55.6394 34.9073 54.9146 34.0854 54.3863 33.0197C53.8579 31.9539 53.5937 30.6895 53.5937 29.2264C53.5937 27.7633 53.8579 26.4988 54.3863 25.4331C54.9146 24.3674 55.6394 23.5455 56.5606 22.9675C57.4819 22.3894 58.5341 22.1004 59.7172 22.1004C60.4172 22.1004 61.0742 22.202 61.6884 22.4052C62.307 22.6084 62.8647 22.9065 63.3615 23.2994C63.8582 23.6877 64.2737 24.1619 64.6078 24.7219C64.942 25.2773 65.1723 25.9118 65.2988 26.6253Z" fill="white"/>
<path d="M79.7183 29.2264C79.7183 30.6895 79.4542 31.9539 78.9258 33.0197C78.3975 34.0854 77.6727 34.9073 76.7514 35.4853C75.8302 36.0633 74.778 36.3523 73.5949 36.3523C72.4117 36.3523 71.3595 36.0633 70.4383 35.4853C69.5171 34.9073 68.7923 34.0854 68.264 33.0197C67.7356 31.9539 67.4714 30.6895 67.4714 29.2264C67.4714 27.7633 67.7356 26.4988 68.264 25.4331C68.7923 24.3674 69.5171 23.5455 70.4383 22.9675C71.3595 22.3894 72.4117 22.1004 73.5949 22.1004C74.778 22.1004 75.8302 22.3894 76.7514 22.9675C77.6727 23.5455 78.3975 24.3674 78.9258 25.4331C79.4542 26.4988 79.7183 27.7633 79.7183 29.2264ZM78.0926 29.2264C78.0926 28.0252 77.8917 27.0114 77.4898 26.185C77.0924 25.3586 76.5527 24.7331 75.8708 24.3087C75.1935 23.8842 74.4348 23.6719 73.5949 23.6719C72.7549 23.6719 71.994 23.8842 71.3121 24.3087C70.6348 24.7331 70.0951 25.3586 69.6932 26.185C69.2958 27.0114 69.0971 28.0252 69.0971 29.2264C69.0971 30.4276 69.2958 31.4414 69.6932 32.2678C70.0951 33.0942 70.6348 33.7196 71.3121 34.1441C71.994 34.5686 72.7549 34.7808 73.5949 34.7808C74.4348 34.7808 75.1935 34.5686 75.8708 34.1441C76.5527 33.7196 77.0924 33.0942 77.4898 32.2678C77.8917 31.4414 78.0926 30.4276 78.0926 29.2264Z" fill="white"/>
<path d="M93.5435 22.2901V36.1627H91.9178L84.3583 25.2705H84.2229V36.1627H82.543V22.2901H84.1687L91.7552 33.2093H91.8907V22.2901H93.5435Z" fill="white"/>
<path d="M104.492 25.7582C104.41 25.0718 104.081 24.539 103.503 24.1596C102.925 23.7803 102.216 23.5906 101.376 23.5906C100.761 23.5906 100.224 23.69 99.7635 23.8887C99.3074 24.0874 98.9506 24.3606 98.6932 24.7083C98.4404 25.056 98.3139 25.4512 98.3139 25.8937C98.3139 26.264 98.402 26.5824 98.5781 26.8488C98.7587 27.1107 98.989 27.3297 99.269 27.5059C99.549 27.6775 99.8425 27.8197 100.15 27.9326C100.457 28.041 100.739 28.129 100.996 28.1968L102.405 28.5761C102.767 28.6709 103.168 28.8019 103.611 28.969C104.058 29.1361 104.485 29.3641 104.891 29.6531C105.302 29.9376 105.641 30.3034 105.907 30.7505C106.174 31.1975 106.307 31.7462 106.307 32.3965C106.307 33.1461 106.11 33.8235 105.718 34.4286C105.329 35.0337 104.76 35.5147 104.011 35.8714C103.265 36.2282 102.36 36.4065 101.294 36.4065C100.301 36.4065 99.4406 36.2462 98.7136 35.9256C97.991 35.605 97.422 35.1579 97.0066 34.5844C96.5956 34.0109 96.3631 33.3448 96.3089 32.5862H98.043C98.0881 33.11 98.2642 33.5435 98.5713 33.8867C98.8829 34.2254 99.2758 34.4783 99.7499 34.6454C100.229 34.8079 100.743 34.8892 101.294 34.8892C101.936 34.8892 102.511 34.7854 103.022 34.5776C103.532 34.3654 103.936 34.0719 104.234 33.697C104.532 33.3177 104.681 32.8752 104.681 32.3694C104.681 31.9088 104.553 31.534 104.295 31.245C104.038 30.9559 103.699 30.7211 103.279 30.5405C102.859 30.3599 102.405 30.2018 101.918 30.0663L100.211 29.5786C99.1268 29.267 98.2687 28.8222 97.6365 28.2442C97.0043 27.6662 96.6882 26.9098 96.6882 25.975C96.6882 25.1983 96.8982 24.5209 97.3182 23.9429C97.7427 23.3603 98.3117 22.9088 99.0251 22.5881C99.7432 22.263 100.545 22.1004 101.43 22.1004C102.324 22.1004 103.119 22.2607 103.814 22.5814C104.51 22.8975 105.061 23.331 105.467 23.8819C105.878 24.4328 106.095 25.0583 106.117 25.7582H104.492Z" fill="white"/>
</svg>
