<svg width="96" height="96" viewBox="0 0 96 96" fill="none" xmlns="http://www.w3.org/2000/svg">
<g filter="url(#filter0_b_865_535)">
<rect y="35" width="70" height="70" rx="35" transform="rotate(-30 0 35)" fill="#151515"/>
<rect x="0.683013" y="35.183" width="69" height="69" rx="34.5" transform="rotate(-30 0.683013 35.183)" stroke="#BBBBBB"/>
<g clip-path="url(#clip0_865_535)">
<path d="M39.8756 41.5669L41.2818 44.0026L36.2582 46.903C35.3769 46.1601 34.087 45.9915 33.0373 46.5975C31.7021 47.3684 31.2369 49.1043 32.0078 50.4395C32.7787 51.7747 34.5146 52.2398 35.8498 51.4689C36.8995 50.8629 37.3984 49.6615 37.1957 48.5268L39.0732 47.4428C38.9233 47.9522 38.8343 48.4645 38.7858 48.9957C38.6143 50.8666 39.0091 52.8248 39.8427 54.5763L37.3816 55.9972L41.1316 62.4924L47.6268 58.7424L43.8768 52.2472L41.4918 53.6241C40.8414 52.1898 40.5163 50.6015 40.6471 49.1728C40.7736 47.7804 41.2719 46.5709 42.2633 45.7025L43.6256 48.0621L50.1208 44.3121L48.7585 41.9525C50.0062 41.5281 51.3029 41.7013 52.5719 42.288C53.8746 42.8891 55.0876 43.9647 56.0045 45.2452L53.6196 46.6222L57.3696 53.1174L63.8648 49.3674L60.1148 42.8722L57.6537 44.2931C56.5537 42.6954 55.0552 41.3744 53.3492 40.5875C52.8649 40.3639 52.3768 40.1849 51.8606 40.06L53.7382 38.976C54.6195 39.7188 55.9094 39.8875 56.9591 39.2814C58.2943 38.5106 58.7594 36.7747 57.9886 35.4395C57.2177 34.1043 55.4818 33.6392 54.1466 34.41C53.0969 35.0161 52.598 36.2175 52.8007 37.3522L47.777 40.2526L46.3708 37.8169L39.8756 41.5669ZM42.4369 42.2532L45.6845 40.3782L47.5595 43.6258L44.3119 45.5008L42.4369 42.2532ZM33.9748 48.2213C34.4315 47.9577 34.9917 48.1078 35.2554 48.5645C35.5191 49.0212 35.369 49.5815 34.9123 49.8451C34.4556 50.1088 33.8953 49.9587 33.6316 49.502C33.3679 49.0453 33.5181 48.485 33.9748 48.2213ZM55.0841 36.0338C55.5408 35.7702 56.1011 35.9203 56.3648 36.377C56.6284 36.8337 56.4783 37.394 56.0216 37.6576C55.5649 37.9213 55.0047 37.7712 54.741 37.3145C54.4773 36.8578 54.6274 36.2975 55.0841 36.0338ZM39.9429 56.6835L43.1905 54.8085L45.0655 58.0561L41.8179 59.9311L39.9429 56.6835ZM56.1809 47.3085L59.4285 45.4335L61.3035 48.6811L58.0559 50.5561L56.1809 47.3085Z" fill="white"/>
</g>
</g>
<defs>
<filter id="filter0_b_865_535" x="-75" y="-75" width="245.622" height="245.622" filterUnits="userSpaceOnUse" color-interpolation-filters="sRGB">
<feFlood flood-opacity="0" result="BackgroundImageFix"/>
<feGaussianBlur in="BackgroundImageFix" stdDeviation="37.5"/>
<feComposite in2="SourceAlpha" operator="in" result="effect1_backgroundBlur_865_535"/>
<feBlend mode="normal" in="SourceGraphic" in2="effect1_backgroundBlur_865_535" result="shape"/>
</filter>
<clipPath id="clip0_865_535">
<rect width="30" height="30" fill="white" transform="translate(27.3203 42.3205) rotate(-30)"/>
</clipPath>
</defs>
</svg>
