<svg width="24" height="24" viewBox="0 0 24 24" fill="none" xmlns="http://www.w3.org/2000/svg">
<path d="M15.6328 1.5C14.4023 1.5 13.1602 2.13867 12.3281 3.11719V3.14062C11.7363 3.87598 11.0947 5.03613 11.2969 6.375C11.2002 6.33691 11.1943 6.34863 11.0859 6.30469C10.5674 6.09375 9.92578 5.85938 9.16406 5.85938C6.17871 5.85938 3.91406 8.56348 3.91406 12.1172C3.91406 14.417 4.6875 16.5732 5.71875 18.1875C6.23438 18.9961 6.82031 19.6611 7.42969 20.1562C8.03906 20.6514 8.67773 21 9.39844 21C10.1191 21 10.6582 20.7568 11.0625 20.5781C11.4668 20.3994 11.7803 20.25 12.375 20.25C12.9111 20.25 13.1836 20.3965 13.5938 20.5781C14.0039 20.7598 14.5635 21 15.3047 21C16.1074 21 16.79 20.6074 17.3438 20.1094C17.8975 19.6113 18.3633 18.9697 18.75 18.3516C19.1367 17.7334 19.4414 17.127 19.6641 16.6406C19.7754 16.3975 19.8574 16.1953 19.9219 16.0312C19.9863 15.8672 20.0186 15.8203 20.0625 15.6328L20.2031 15.0234L19.6406 14.7656C19.5088 14.707 18.9844 14.4463 18.5156 13.9688C18.0469 13.4912 17.6484 12.8379 17.6484 11.8359C17.6484 10.8662 18.0205 10.2158 18.4219 9.75C18.6211 9.51855 18.8291 9.32812 18.9844 9.21094C19.0635 9.15234 19.125 9.12305 19.1719 9.09375C19.2188 9.06445 19.21 9.07324 19.2891 9.02344L19.9219 8.625L19.5 7.99219C18.2754 6.1084 16.3154 5.85938 15.5391 5.85938C15.1787 5.85938 14.9238 5.98535 14.6016 6.04688C14.7832 5.87695 15.0176 5.77148 15.1641 5.57812C15.167 5.5752 15.1611 5.55762 15.1641 5.55469C15.1729 5.5459 15.1816 5.54004 15.1875 5.53125H15.2109C16.0107 4.6377 16.4531 3.43652 16.3828 2.20312L16.3359 1.5H15.6328ZM14.7422 3.23438C14.6133 3.72949 14.4023 4.20117 14.0625 4.57031L14.0156 4.61719C13.7285 5.00391 13.2861 5.29102 12.8438 5.46094C12.9668 4.97168 13.1807 4.47656 13.4766 4.10156C13.4824 4.09277 13.4941 4.08691 13.5 4.07812C13.8281 3.70312 14.2822 3.42188 14.7422 3.23438ZM9.16406 7.35938C9.58301 7.35938 10.043 7.51758 10.5234 7.71094C11.0039 7.9043 11.4521 8.15625 12.0938 8.15625C12.7324 8.15625 13.2158 7.9043 13.7812 7.71094C14.3467 7.51758 14.9502 7.35938 15.5391 7.35938C15.9316 7.35938 16.9014 7.6084 17.7188 8.36719C17.5752 8.49609 17.4492 8.58984 17.2969 8.76562C16.7256 9.42773 16.1484 10.459 16.1484 11.8359C16.1484 13.2656 16.7725 14.3408 17.4375 15.0234C17.8506 15.4453 18.1055 15.5449 18.4219 15.7266C18.3809 15.8203 18.3574 15.8936 18.3047 16.0078C18.1025 16.4473 17.8242 17.0098 17.4844 17.5547C17.1445 18.0996 16.7314 18.6299 16.3359 18.9844C15.9404 19.3389 15.5859 19.5 15.3047 19.5C14.8799 19.5 14.6309 19.3828 14.2031 19.1953C13.7754 19.0078 13.1865 18.75 12.375 18.75C11.5225 18.75 10.8926 19.002 10.4531 19.1953C10.0137 19.3887 9.78516 19.5 9.39844 19.5C9.21387 19.5 8.81543 19.3506 8.36719 18.9844C7.91895 18.6182 7.42676 18.0615 6.98438 17.3672C6.09668 15.9785 5.41406 14.0713 5.41406 12.1172C5.41406 9.16113 7.06348 7.35938 9.16406 7.35938Z" fill="black"/>
</svg>
