<svg width="24" height="24" viewBox="0 0 24 24" fill="none" xmlns="http://www.w3.org/2000/svg">
<path d="M4.5 4.5C3.2666 4.5 2.25 5.5166 2.25 6.75V11.8359C1.79297 12.249 1.5 12.8408 1.5 13.5V20.25H5.25V18.75H18.75V20.25H22.5V13.5C22.5 12.8408 22.207 12.249 21.75 11.8359V6.75C21.75 5.5166 20.7334 4.5 19.5 4.5H4.5ZM4.5 6H19.5C19.916 6 20.25 6.33398 20.25 6.75V11.25H18.75V10.5C18.75 9.2666 17.7334 8.25 16.5 8.25H13.5C12.9258 8.25 12.3984 8.47559 12 8.83594C11.6016 8.47559 11.0742 8.25 10.5 8.25H7.5C6.2666 8.25 5.25 9.2666 5.25 10.5V11.25H3.75V6.75C3.75 6.33398 4.08398 6 4.5 6ZM7.5 9.75H10.5C10.916 9.75 11.25 10.084 11.25 10.5V11.25H6.75V10.5C6.75 10.084 7.08398 9.75 7.5 9.75ZM13.5 9.75H16.5C16.916 9.75 17.25 10.084 17.25 10.5V11.25H12.75V10.5C12.75 10.084 13.084 9.75 13.5 9.75ZM3.75 12.75H20.25C20.666 12.75 21 13.084 21 13.5V18.75H20.25V17.25H3.75V18.75H3V13.5C3 13.084 3.33398 12.75 3.75 12.75Z" fill="black"/>
</svg>
