<svg width="24" height="24" viewBox="0 0 24 24" fill="none" xmlns="http://www.w3.org/2000/svg">
<path d="M0.75 5.0625V18.9375H7.45312C8.07422 18.9375 12.3516 18.8115 12.3516 14.9062C12.3516 12.4658 10.6729 11.6367 9.82031 11.3906C10.4473 11.0947 11.6953 10.3916 11.6953 8.50781C11.6953 7.45898 11.5459 5.0625 7.26562 5.0625H0.75ZM16.0312 6.35156V7.61719H21.2109V6.35156H16.0312ZM3.79688 7.42969H6.65625C6.92578 7.42969 8.74219 7.28613 8.74219 9.02344C8.74219 10.5088 7.42969 10.6641 6.89062 10.6641H3.79688V7.42969ZM18.75 8.76562C14.833 8.76562 14.0156 12.167 14.0156 13.6406C14.0156 18.0146 17.6016 18.5156 18.75 18.5156C21.8467 18.5156 22.7256 16.5117 23.0859 15.3984H20.8359C20.748 15.6855 20.0918 16.6172 18.8438 16.6172C16.752 16.6172 16.5703 14.9824 16.5703 14.25H23.2266C23.3613 11.7188 22.2539 8.76562 18.75 8.76562ZM18.6797 10.6641C19.3037 10.6641 19.8076 10.8457 20.1094 11.1797C20.4111 11.5166 20.6338 12.0088 20.6953 12.6562H16.5703C16.582 12.4775 16.623 12.2725 16.6875 12.0469C16.752 11.8154 16.8516 11.5957 17.0156 11.3906C17.1797 11.1885 17.4082 11.0127 17.6719 10.875C17.9414 10.7344 18.2754 10.6641 18.6797 10.6641ZM3.79688 12.75H7.10156C7.75781 12.75 9.30469 12.8525 9.30469 14.7422C9.30469 16.5732 7.35645 16.5703 7.05469 16.5703H3.79688V12.75Z" fill="black"/>
</svg>
