<svg width="24" height="24" viewBox="0 0 24 24" fill="none" xmlns="http://www.w3.org/2000/svg">
<path d="M9 4.5V6.75H4.35938C4.0459 5.88281 3.21973 5.25 2.25 5.25C1.0166 5.25 0 6.2666 0 7.5C0 8.7334 1.0166 9.75 2.25 9.75C3.21973 9.75 4.0459 9.11719 4.35938 8.25H6.09375C5.78613 8.54297 5.51953 8.8623 5.27344 9.21094C4.40625 10.4385 3.89648 11.9531 3.77344 13.5H1.5V19.5H7.5V13.5H5.29688C5.41992 12.2461 5.83008 11.0156 6.49219 10.0781C7.13672 9.16406 7.96582 8.52539 9 8.32031V10.5H15V8.32031C16.0342 8.52539 16.8633 9.16406 17.5078 10.0781C18.1699 11.0156 18.5801 12.2461 18.7031 13.5H16.5V19.5H22.5V13.5H20.2266C20.1035 11.9531 19.5938 10.4385 18.7266 9.21094C18.4805 8.8623 18.2139 8.54297 17.9062 8.25H19.6406C19.9541 9.11719 20.7803 9.75 21.75 9.75C22.9834 9.75 24 8.7334 24 7.5C24 6.2666 22.9834 5.25 21.75 5.25C20.7803 5.25 19.9541 5.88281 19.6406 6.75H15V4.5H9ZM10.5 6H13.5V9H10.5V6ZM2.25 6.75C2.67188 6.75 3 7.07812 3 7.5C3 7.92188 2.67188 8.25 2.25 8.25C1.82812 8.25 1.5 7.92188 1.5 7.5C1.5 7.07812 1.82812 6.75 2.25 6.75ZM21.75 6.75C22.1719 6.75 22.5 7.07812 22.5 7.5C22.5 7.92188 22.1719 8.25 21.75 8.25C21.3281 8.25 21 7.92188 21 7.5C21 7.07812 21.3281 6.75 21.75 6.75ZM3 15H6V18H3V15ZM18 15H21V18H18V15Z" fill="black"/>
</svg>
