<svg width="24" height="24" viewBox="0 0 24 24" fill="none" xmlns="http://www.w3.org/2000/svg">
<path d="M5.57452 4.57452C7.32452 2.85817 9.42788 2 11.8846 2C14.3413 2 16.4279 2.85817 18.1442 4.57452C19.8942 6.25721 20.7692 8.29327 20.7692 10.6827C20.7692 12.9712 19.9111 15.2933 18.1947 17.649C16.512 20.0048 14.4087 21.7885 11.8846 23V19.4159C9.42788 19.4159 7.32452 18.5577 5.57452 16.8413C3.85817 15.125 3 13.0721 3 10.6827C3 8.29327 3.85817 6.25721 5.57452 4.57452ZM11.3798 11.238V8.15865H8.25V11.238H9.8149L8.75481 13.2572H10.3197L11.3798 11.238ZM15.5192 11.238V8.15865H12.3894V11.238H13.9543L12.9447 13.2572H14.5096L15.5192 11.238Z" fill="black"/>
</svg>
