<svg width="24" height="24" viewBox="0 0 24 24" fill="none" xmlns="http://www.w3.org/2000/svg">
<path d="M4.5 5.25C3.2666 5.25 2.25 6.2666 2.25 7.5V9.14062C1.38281 9.4541 0.75 10.2803 0.75 11.25V19.5H2.25V18H21.75V19.5H23.25V11.25C23.25 10.2803 22.6172 9.4541 21.75 9.14062V7.5C21.75 6.2666 20.7334 5.25 19.5 5.25H4.5ZM4.5 6.75H19.5C19.916 6.75 20.25 7.08398 20.25 7.5V9.14062C19.3828 9.4541 18.75 10.2803 18.75 11.25V12.75H5.25V11.25C5.25 10.2803 4.61719 9.4541 3.75 9.14062V7.5C3.75 7.08398 4.08398 6.75 4.5 6.75ZM3 10.5C3.41602 10.5 3.75 10.834 3.75 11.25V14.25H20.25V11.25C20.25 10.834 20.584 10.5 21 10.5C21.416 10.5 21.75 10.834 21.75 11.25V16.5H2.25V11.25C2.25 10.834 2.58398 10.5 3 10.5Z" fill="black"/>
</svg>
