<svg width="24" height="24" viewBox="0 0 24 24" fill="none" xmlns="http://www.w3.org/2000/svg">
<path d="M12 2.25C10.7666 2.25 9.75 3.2666 9.75 4.5C9.75 5.34375 10.2246 6.08496 10.9219 6.46875L8.71875 10.875L5.27344 8.41406C5.72461 8.00098 6 7.40332 6 6.75C6 5.5166 4.9834 4.5 3.75 4.5C2.5166 4.5 1.5 5.5166 1.5 6.75C1.5 7.76074 2.19434 8.60156 3.11719 8.88281L4.5 16.5V20.25H19.5V16.5L20.8828 8.88281C21.8057 8.60156 22.5 7.76074 22.5 6.75C22.5 5.5166 21.4834 4.5 20.25 4.5C19.0166 4.5 18 5.5166 18 6.75C18 7.40332 18.2754 8.00098 18.7266 8.41406L15.2812 10.875L13.0781 6.46875C13.7754 6.08496 14.25 5.34375 14.25 4.5C14.25 3.2666 13.2334 2.25 12 2.25ZM12 3.75C12.4219 3.75 12.75 4.07812 12.75 4.5C12.75 4.92188 12.4219 5.25 12 5.25C11.5781 5.25 11.25 4.92188 11.25 4.5C11.25 4.07812 11.5781 3.75 12 3.75ZM3.75 6C4.17188 6 4.5 6.32812 4.5 6.75C4.5 7.17188 4.17188 7.5 3.75 7.5C3.32812 7.5 3 7.17188 3 6.75C3 6.32812 3.32812 6 3.75 6ZM20.25 6C20.6719 6 21 6.32812 21 6.75C21 7.17188 20.6719 7.5 20.25 7.5C19.8281 7.5 19.5 7.17188 19.5 6.75C19.5 6.32812 19.8281 6 20.25 6ZM12 7.6875L14.3203 12.3281L15.4453 12.6094L19.1953 9.9375L18.1406 15.75H5.85938L4.80469 9.9375L8.55469 12.6094L9.67969 12.3281L12 7.6875ZM6 17.25H18V18.75H6V17.25Z" fill="black"/>
</svg>
