<svg width="24" height="24" viewBox="0 0 24 24" fill="none" xmlns="http://www.w3.org/2000/svg">
<path d="M12.0356 2.66675C13.2994 2.66675 14.5024 2.90978 15.6446 3.39585C16.8112 3.88192 17.8076 4.55026 18.634 5.40088C19.4603 6.2515 20.1165 7.24794 20.6025 8.3902C21.1129 9.50815 21.3559 10.7112 21.3316 11.9993C21.3559 13.2873 21.1129 14.5025 20.6025 15.6448C20.1165 16.7627 19.4603 17.747 18.634 18.5976C17.8076 19.4482 16.8112 20.1166 15.6446 20.6027C14.5024 21.0887 13.2994 21.3318 12.0356 21.3318C10.7475 21.3318 9.53234 21.0887 8.39008 20.6027C7.27212 20.1166 6.28783 19.4482 5.43721 18.5976C4.58659 17.747 3.91825 16.7627 3.43218 15.6448C2.94612 14.5025 2.69093 13.2873 2.66663 11.9993C2.69093 10.7112 2.94612 9.50815 3.43218 8.3902C3.91825 7.24794 4.58659 6.2515 5.43721 5.40088C6.28783 4.55026 7.27212 3.88192 8.39008 3.39585C9.53234 2.90978 10.7475 2.66675 12.0356 2.66675ZM3.79673 12.5461C3.84534 12.8377 3.8818 13.1294 3.9061 13.421C3.95471 13.7126 4.02762 14.0043 4.12483 14.2959C4.22204 14.5633 4.30711 14.8306 4.38002 15.0979C4.47723 15.341 4.6109 15.584 4.78102 15.827H7.58806C7.53946 15.5597 7.4787 15.2924 7.40579 15.025C7.33288 14.7577 7.27212 14.4904 7.22351 14.223C7.19921 13.9557 7.16275 13.6883 7.11415 13.421C7.06554 13.1294 7.05339 12.8377 7.07769 12.5461H3.79673ZM7.07769 11.4524C7.05339 11.1608 7.06554 10.8813 7.11415 10.614C7.16275 10.3223 7.19921 10.0428 7.22351 9.77549C7.24782 9.50815 7.29642 9.24082 7.36933 8.97348C7.46655 8.70614 7.53946 8.43881 7.58806 8.17147H4.78102C4.6109 8.4145 4.47723 8.66969 4.38002 8.93702C4.30711 9.18006 4.22204 9.4474 4.12483 9.73904C4.02762 10.0064 3.95471 10.2859 3.9061 10.5775C3.8818 10.8691 3.84534 11.1608 3.79673 11.4524H7.07769ZM8.75463 8.17147C8.68172 8.4145 8.59665 8.68184 8.49944 8.97348C8.42653 9.24082 8.36577 9.50815 8.31717 9.77549C8.29286 10.0428 8.25641 10.3223 8.2078 10.614C8.15919 10.8813 8.14704 11.1608 8.17135 11.4524H15.8634C15.8634 11.1608 15.8391 10.8813 15.7905 10.614C15.7662 10.3223 15.7297 10.0428 15.6811 9.77549C15.6325 9.50815 15.5596 9.24082 15.4624 8.97348C15.3895 8.68184 15.3287 8.4145 15.2801 8.17147H8.75463ZM8.17135 12.5461C8.14704 12.8377 8.15919 13.1294 8.2078 13.421C8.25641 13.6883 8.30501 13.9557 8.35362 14.223C8.40223 14.4904 8.46299 14.7698 8.5359 15.0615C8.60881 15.3288 8.68172 15.584 8.75463 15.827H15.2801C15.3287 15.584 15.3895 15.3288 15.4624 15.0615C15.5596 14.7698 15.6325 14.4904 15.6811 14.223C15.7297 13.9557 15.7662 13.6883 15.7905 13.421C15.8391 13.1294 15.8634 12.8377 15.8634 12.5461H8.17135ZM16.957 12.5461C16.957 12.8377 16.9327 13.1294 16.8841 13.421C16.8598 13.6883 16.8234 13.9557 16.7747 14.223C16.7504 14.4904 16.7018 14.7577 16.6289 15.025C16.556 15.2924 16.4831 15.5597 16.4102 15.827H19.2901C19.4603 15.584 19.5818 15.341 19.6547 15.0979C19.7519 14.8306 19.8491 14.5633 19.9463 14.2959C20.0436 14.0043 20.1043 13.7126 20.1286 13.421C20.1772 13.1294 20.2258 12.8377 20.2744 12.5461H16.957ZM16.9935 11.4524H20.238C20.238 11.1608 20.2015 10.8691 20.1286 10.5775C20.08 10.2859 20.0193 10.0064 19.9463 9.73904C19.8734 9.4474 19.7762 9.18006 19.6547 8.93702C19.5575 8.66969 19.4481 8.4145 19.3266 8.17147H16.4102C16.5074 8.43881 16.5803 8.70614 16.6289 8.97348C16.6775 9.24082 16.7261 9.50815 16.7747 9.77549C16.8477 10.0428 16.8841 10.3223 16.8841 10.614C16.9084 10.8813 16.9449 11.1608 16.9935 11.4524ZM18.5975 7.04136H18.634C18.3423 6.70111 18.0385 6.38517 17.7226 6.09353C17.4309 5.77758 17.0907 5.49809 16.7018 5.25506C16.3373 4.98772 15.9606 4.75684 15.5717 4.56241C15.1829 4.36799 14.7576 4.21001 14.2958 4.0885C14.4902 4.33153 14.6604 4.57456 14.8062 4.8176C14.952 5.03633 15.0978 5.27936 15.2436 5.5467C15.4138 5.78973 15.5474 6.04492 15.6446 6.31226C15.7662 6.55529 15.8998 6.79833 16.0456 7.04136H18.5975ZM12.6189 3.79686H12.6553C12.5824 3.79686 12.5217 3.79686 12.473 3.79686C12.4487 3.79686 12.4001 3.79686 12.3272 3.79686C12.2786 3.77255 12.23 3.7604 12.1814 3.7604C12.1571 3.7604 12.0963 3.7604 11.9991 3.7604C11.9748 3.7604 11.9262 3.7604 11.8533 3.7604C11.8047 3.7604 11.7561 3.77255 11.7075 3.79686C11.6589 3.79686 11.5981 3.79686 11.5252 3.79686C11.4766 3.79686 11.428 3.79686 11.3794 3.79686C11.1364 4.03989 10.9176 4.29508 10.7232 4.56241C10.5288 4.82975 10.3343 5.09709 10.1399 5.36443C9.94549 5.63176 9.77537 5.91125 9.62955 6.20289C9.50803 6.47023 9.36221 6.74972 9.19209 7.04136H14.8426C14.6725 6.74972 14.5145 6.47023 14.3687 6.20289C14.2229 5.91125 14.0528 5.63176 13.8583 5.36443C13.6639 5.09709 13.4695 4.82975 13.2751 4.56241C13.1049 4.29508 12.8862 4.03989 12.6189 3.79686ZM9.666 4.12495H9.70246C9.265 4.24647 8.85184 4.40444 8.46299 4.59887C8.07413 4.7933 7.69743 5.01203 7.33288 5.25506C6.96833 5.49809 6.62808 5.77758 6.31214 6.09353C6.02049 6.38517 5.72885 6.70111 5.43721 7.04136H8.02553C8.09844 6.79833 8.2078 6.55529 8.35362 6.31226C8.49944 6.04492 8.63311 5.78973 8.75463 5.5467C8.87614 5.30367 9.02196 5.06063 9.19209 4.8176C9.36221 4.57456 9.52018 4.34368 9.666 4.12495ZM5.43721 16.9571H5.47367C5.7167 17.2974 5.99619 17.6255 6.31214 17.9414C6.65238 18.2331 6.99263 18.5004 7.33288 18.7434C7.67313 18.9865 8.04983 19.2052 8.46299 19.3996C8.87614 19.5941 9.2893 19.7642 9.70246 19.91C9.53234 19.667 9.36221 19.4239 9.19209 19.1809C9.02196 18.9379 8.87614 18.6948 8.75463 18.4518C8.63311 18.2088 8.49944 17.9657 8.35362 17.7227C8.2078 17.4554 8.09844 17.2002 8.02553 16.9571H5.43721ZM11.3794 20.2016H11.4158C11.4402 20.2016 11.4766 20.2016 11.5252 20.2016C11.5981 20.2016 11.6589 20.2016 11.7075 20.2016C11.7561 20.226 11.8047 20.2381 11.8533 20.2381C11.9262 20.2381 11.9748 20.2381 11.9991 20.2381C12.0963 20.2381 12.1571 20.2381 12.1814 20.2381C12.23 20.2381 12.2786 20.226 12.3272 20.2016C12.4001 20.2016 12.4487 20.2016 12.473 20.2016C12.5217 20.2016 12.5824 20.2016 12.6553 20.2016C12.8497 19.9586 13.0563 19.7034 13.2751 19.4361C13.4938 19.1688 13.6882 18.9014 13.8583 18.6341C14.0285 18.3667 14.1986 18.0994 14.3687 17.8321C14.5388 17.5404 14.6847 17.2488 14.8062 16.9571H9.22854C9.35006 17.2488 9.49588 17.5404 9.666 17.8321C9.83613 18.0994 10.0063 18.3667 10.1764 18.6341C10.3465 18.9014 10.5288 19.1688 10.7232 19.4361C10.9419 19.7034 11.1607 19.9586 11.3794 20.2016ZM14.2958 19.91H14.3323C14.7454 19.7885 15.1586 19.6305 15.5717 19.4361C15.9849 19.2417 16.3616 19.0229 16.7018 18.7799C17.0664 18.5126 17.4066 18.2331 17.7226 17.9414C18.0628 17.6255 18.3545 17.2974 18.5975 16.9571H16.0456C15.8998 17.2002 15.7662 17.4554 15.6446 17.7227C15.5474 17.9657 15.4138 18.2209 15.2436 18.4883C15.0978 18.7313 14.952 18.9743 14.8062 19.2174C14.6604 19.4361 14.4902 19.667 14.2958 19.91Z" fill="black"/>
</svg>
