<svg width="24" height="24" viewBox="0 0 24 24" fill="none" xmlns="http://www.w3.org/2000/svg">
<g clip-path="url(#clip0_19_2294)">
<path d="M18.7734 3L18 3.35156C15.6152 4.40332 12.1699 4.79883 9.23438 5.83594C7.7666 6.35449 6.40723 7.0459 5.39062 8.15625C4.37402 9.2666 3.75 10.7959 3.75 12.75C3.75 14.7715 4.93945 16.1572 6.04688 16.9453C6.51855 17.2822 6.97559 17.5254 7.35938 17.6953C6.89648 18.5537 6.55371 19.3271 6.32812 19.9922C5.91797 21.1904 5.85352 22.1279 5.88281 22.8047C5.91211 23.4814 6 23.9443 6 23.9297L7.5 24.0703C7.54688 23.5283 7.40625 23.2441 7.38281 22.7344C7.35938 22.2246 7.40332 21.5244 7.75781 20.4844C8.4668 18.4072 10.4326 14.9883 15.5391 9.51562L14.4609 8.48438C11.3994 11.7656 9.42188 14.3232 8.13281 16.3828C7.80469 16.251 7.36523 16.0488 6.91406 15.7266C6.04395 15.1084 5.25 14.2031 5.25 12.75C5.25 11.0977 5.72168 10.0078 6.49219 9.16406C7.2627 8.32031 8.38477 7.7168 9.72656 7.24219C12.1553 6.38379 15.1611 5.9502 17.7422 4.99219C17.9824 5.90332 18.75 9.02344 18.75 13.8984C18.75 16.6641 18.1025 18.249 17.3438 19.125C16.585 20.001 15.6709 20.25 14.8594 20.25C14.0508 20.25 13.1777 19.8369 12.4219 19.3125C11.666 18.7881 11.1445 18.2402 10.6172 17.9062L9.82031 19.1719C9.95508 19.2568 10.7021 19.9482 11.5781 20.5547C12.4541 21.1611 13.5645 21.75 14.8594 21.75C16.0137 21.75 17.4258 21.3428 18.4922 20.1094C19.5586 18.876 20.25 16.8955 20.25 13.8984C20.25 8.0332 19.0078 3.82031 19.0078 3.82031L18.7734 3Z" fill="black"/>
</g>
<defs>
<clipPath id="clip0_19_2294">
<rect width="24" height="24" fill="white"/>
</clipPath>
</defs>
</svg>
