<svg width="24" height="24" viewBox="0 0 24 24" fill="none" xmlns="http://www.w3.org/2000/svg">
<path d="M12 2.25C8.28223 2.25 5.25 5.28223 5.25 9C5.25 10.0547 5.67773 11.2646 6.25781 12.5859C6.83789 13.9072 7.58496 15.3105 8.34375 16.6172C9.86133 19.2334 11.3906 21.4219 11.3906 21.4219L12 22.3125L12.6094 21.4219C12.6094 21.4219 14.1387 19.2334 15.6562 16.6172C16.415 15.3105 17.1621 13.9072 17.7422 12.5859C18.3223 11.2646 18.75 10.0547 18.75 9C18.75 5.28223 15.7178 2.25 12 2.25ZM12 3.75C14.9092 3.75 17.25 6.09082 17.25 9C17.25 9.60059 16.9277 10.7373 16.3828 11.9766C15.8379 13.2158 15.085 14.5898 14.3438 15.8672C13.166 17.9004 12.4336 18.9756 12 19.6172C11.5664 18.9756 10.834 17.9004 9.65625 15.8672C8.91504 14.5898 8.16211 13.2158 7.61719 11.9766C7.07227 10.7373 6.75 9.60059 6.75 9C6.75 6.09082 9.09082 3.75 12 3.75ZM12 7.5C11.1709 7.5 10.5 8.1709 10.5 9C10.5 9.8291 11.1709 10.5 12 10.5C12.8291 10.5 13.5 9.8291 13.5 9C13.5 8.1709 12.8291 7.5 12 7.5Z" fill="black"/>
</svg>
