<svg width="24" height="24" viewBox="0 0 24 24" fill="none" xmlns="http://www.w3.org/2000/svg">
<path d="M7.31375 6C10.6627 6 13.3773 8.73357 13.3773 12.1054C13.3773 15.4772 10.6625 18.2105 7.31375 18.2105C3.96503 18.2105 1.25 15.4772 1.25 12.1054C1.25 8.73357 3.96482 6 7.31375 6ZM16.9971 6.35764C18.6716 6.35764 20.029 8.93072 20.029 12.1054H20.0292C20.0292 15.2792 18.6718 17.8531 16.9973 17.8531C15.3229 17.8531 13.9655 15.2792 13.9655 12.1054C13.9655 8.93155 15.3227 6.35764 16.9971 6.35764ZM21.6837 6.95631C22.2725 6.95631 22.75 9.26158 22.75 12.1054C22.75 14.9483 22.2727 17.2544 21.6837 17.2544C21.0947 17.2544 20.6176 14.9489 20.6176 12.1054C20.6176 9.26178 21.0949 6.95631 21.6837 6.95631Z" fill="black"/>
</svg>
