<svg width="24" height="24" viewBox="0 0 24 24" fill="none" xmlns="http://www.w3.org/2000/svg">
<path d="M8.25 3C7.0166 3 6 4.0166 6 5.25V18.75C6 19.9834 7.0166 21 8.25 21H15.75C16.9834 21 18 19.9834 18 18.75V5.25C18 4.0166 16.9834 3 15.75 3H8.25ZM8.25 4.5H15.75C16.166 4.5 16.5 4.83398 16.5 5.25V18.75C16.5 19.166 16.166 19.5 15.75 19.5H8.25C7.83398 19.5 7.5 19.166 7.5 18.75V5.25C7.5 4.83398 7.83398 4.5 8.25 4.5ZM12 17.25C11.5869 17.25 11.25 17.5869 11.25 18C11.25 18.4131 11.5869 18.75 12 18.75C12.4131 18.75 12.75 18.4131 12.75 18C12.75 17.5869 12.4131 17.25 12 17.25Z" fill="black"/>
</svg>
