<svg width="24" height="24" viewBox="0 0 24 24" fill="none" xmlns="http://www.w3.org/2000/svg">
<path d="M15.75 3C14.707 3 13.6816 3.4043 12.8906 4.19531L5.85937 11.2266C3.62988 13.4561 3.62988 17.083 5.85937 19.3125C8.08887 21.542 11.7158 21.542 13.9453 19.3125L18.6328 14.625L17.5781 13.5703L12.8906 18.2578C11.2354 19.9131 8.56934 19.9131 6.91406 18.2578C5.25879 16.6025 5.25879 13.9365 6.91406 12.2812L13.9453 5.25C14.9531 4.24219 16.5703 4.24219 17.5781 5.25C18.5859 6.25781 18.5859 7.875 17.5781 8.88281L10.5469 15.9141C10.1865 16.2744 9.61816 16.2744 9.25781 15.9141C8.89746 15.5537 8.89746 14.9854 9.25781 14.625L15.7031 8.17969L14.6484 7.125L8.20312 13.5703C7.26855 14.5049 7.26855 16.0342 8.20312 16.9688C9.1377 17.9033 10.667 17.9033 11.6016 16.9688L18.6328 9.9375C20.2148 8.35547 20.2148 5.77734 18.6328 4.19531C17.8418 3.4043 16.793 3 15.75 3Z" fill="black"/>
</svg>
