<svg width="24" height="24" viewBox="0 0 24 24" fill="none" xmlns="http://www.w3.org/2000/svg">
<path d="M13.9921 3C12.4188 3 11.2499 4.28027 11.2499 5.74219V8.27344C9.18153 8.38184 7.30653 8.92969 5.78896 9.79688C5.20888 9.2373 4.43544 9 3.67958 9C2.8622 9 2.03017 9.2666 1.45302 9.91406V9.9375L1.42958 9.96094C0.87587 10.6523 0.650284 11.5752 0.796768 12.4922C0.931534 13.333 1.42372 14.1885 2.27333 14.7422C2.26747 14.8271 2.24989 14.9121 2.24989 15C2.24989 16.9541 3.43056 18.665 5.20302 19.8516C6.97548 21.0381 9.3661 21.75 11.9999 21.75C14.6337 21.75 17.0243 21.0381 18.7968 19.8516C20.5692 18.665 21.7499 16.9541 21.7499 15C21.7499 14.9121 21.7323 14.8271 21.7265 14.7422C22.5761 14.1885 23.0683 13.333 23.203 12.4922C23.3495 11.5752 23.1239 10.6523 22.5702 9.96094L22.5468 9.9375C21.9696 9.29004 21.1376 9 20.3202 9C19.5643 9 18.7909 9.2373 18.2108 9.79688C16.6933 8.92969 14.8183 8.38184 12.7499 8.27344V5.74219C12.7499 5.00684 13.1688 4.5 13.9921 4.5C14.3817 4.5 14.8651 4.68457 15.6093 4.94531C16.2421 5.16797 17.0624 5.41406 18.1171 5.48438C18.372 6.2168 19.0604 6.75 19.8749 6.75C20.9061 6.75 21.7499 5.90625 21.7499 4.875C21.7499 3.84375 20.9061 3 19.8749 3C19.1659 3 18.5536 3.40137 18.2343 3.98438C17.3349 3.93164 16.6845 3.74414 16.1015 3.53906C15.4247 3.30176 14.8007 3 13.9921 3ZM11.9999 9.75C14.3642 9.75 16.4735 10.4004 17.953 11.3906C19.4325 12.3809 20.2499 13.6523 20.2499 15C20.2499 16.3477 19.4325 17.6191 17.953 18.6094C16.4735 19.5996 14.3642 20.25 11.9999 20.25C9.63564 20.25 7.52626 19.5996 6.04677 18.6094C4.56728 17.6191 3.74989 16.3477 3.74989 15C3.74989 13.6523 4.56728 12.3809 6.04677 11.3906C7.52626 10.4004 9.63564 9.75 11.9999 9.75ZM3.67958 10.5C3.96376 10.5 4.24501 10.5703 4.47646 10.6875C3.662 11.3701 3.02919 12.1816 2.64833 13.0781C2.4579 12.8379 2.34364 12.5508 2.29677 12.2578C2.21474 11.7539 2.36122 11.2324 2.60146 10.9219C2.60439 10.916 2.59853 10.9043 2.60146 10.8984C2.82997 10.6582 3.23427 10.5 3.67958 10.5ZM20.3202 10.5C20.7655 10.5 21.1698 10.6582 21.3983 10.8984C21.4013 10.9014 21.3954 10.9189 21.3983 10.9219C21.6386 11.2324 21.785 11.7539 21.703 12.2578C21.6561 12.5508 21.5419 12.8379 21.3515 13.0781C20.9706 12.1816 20.3378 11.3701 19.5233 10.6875C19.7548 10.5703 20.036 10.5 20.3202 10.5ZM8.24989 12C7.42079 12 6.74989 12.6709 6.74989 13.5C6.74989 14.3291 7.42079 15 8.24989 15C9.07899 15 9.74989 14.3291 9.74989 13.5C9.74989 12.6709 9.07899 12 8.24989 12ZM15.7499 12C14.9208 12 14.2499 12.6709 14.2499 13.5C14.2499 14.3291 14.9208 15 15.7499 15C16.579 15 17.2499 14.3291 17.2499 13.5C17.2499 12.6709 16.579 12 15.7499 12ZM15.9374 16.1484C15.0761 16.9482 13.6288 17.4609 11.9999 17.4609C10.371 17.4609 8.92372 16.9424 8.06239 16.2422C8.54286 17.543 10.0839 18.75 11.9999 18.75C13.9159 18.75 15.4569 17.5488 15.9374 16.1484Z" fill="black"/>
</svg>
