<svg width="24" height="24" viewBox="0 0 24 24" fill="none" xmlns="http://www.w3.org/2000/svg">
<path d="M0 4.5V6H14.25V17.25H9.63281C9.29883 15.9609 8.13867 15 6.75 15C5.36133 15 4.20117 15.9609 3.86719 17.25H3V13.5H1.5V18.75H3.86719C4.20117 20.0391 5.36133 21 6.75 21C8.13867 21 9.29883 20.0391 9.63281 18.75H15.8672C16.2012 20.0391 17.3613 21 18.75 21C20.1387 21 21.2988 20.0391 21.6328 18.75H24V12.6328L23.9531 12.5156L22.4531 8.01562L22.2891 7.5H15.75V4.5H0ZM0.75 7.5V9H7.5V7.5H0.75ZM15.75 9H21.2109L22.5 12.8438V17.25H21.6328C21.2988 15.9609 20.1387 15 18.75 15C17.3613 15 16.2012 15.9609 15.8672 17.25H15.75V9ZM1.5 10.5V12H6V10.5H1.5ZM6.75 16.5C7.58789 16.5 8.25 17.1621 8.25 18C8.25 18.8379 7.58789 19.5 6.75 19.5C5.91211 19.5 5.25 18.8379 5.25 18C5.25 17.1621 5.91211 16.5 6.75 16.5ZM18.75 16.5C19.5879 16.5 20.25 17.1621 20.25 18C20.25 18.8379 19.5879 19.5 18.75 19.5C17.9121 19.5 17.25 18.8379 17.25 18C17.25 17.1621 17.9121 16.5 18.75 16.5Z" fill="black"/>
</svg>
