<svg width="24" height="24" viewBox="0 0 24 24" fill="none" xmlns="http://www.w3.org/2000/svg">
<path d="M21.25 10.1517C19.4315 10.1559 17.6575 9.60455 16.1788 8.57549V15.7525C16.1783 17.0817 15.7604 18.3792 14.9809 19.4713C14.2015 20.5634 13.0977 21.3981 11.817 21.8639C10.5364 22.3297 9.1401 22.4042 7.81472 22.0776C6.48935 21.751 5.29811 21.0389 4.40031 20.0363C3.50251 19.0338 2.94094 17.7887 2.79068 16.4675C2.64041 15.1462 2.90863 13.8119 3.55946 12.6429C4.21029 11.4739 5.21271 10.5259 6.43268 9.92574C7.65265 9.32555 9.03202 9.10175 10.3864 9.28427V12.8941C9.76661 12.7045 9.10112 12.7102 8.48491 12.9104C7.8687 13.1105 7.33329 13.4948 6.95514 14.0084C6.57699 14.522 6.37543 15.1386 6.37926 15.7702C6.38309 16.4018 6.5921 17.0161 6.97644 17.5253C7.36079 18.0345 7.90082 18.4127 8.51941 18.6057C9.13801 18.7988 9.80352 18.7969 10.4209 18.6003C11.0383 18.4037 11.5761 18.0224 11.9573 17.511C12.3385 16.9996 12.5438 16.3841 12.5438 15.7525V1.72217H16.1788C16.1763 2.0206 16.202 2.31862 16.2556 2.61247C16.3819 3.26843 16.6446 3.89246 17.0275 4.44636C17.4103 5.00027 17.9054 5.47241 18.4825 5.83392C19.3034 6.36163 20.2658 6.6429 21.25 6.6427V10.1517Z" fill="black"/>
</svg>
