<svg width="24" height="24" viewBox="0 0 24 24" fill="none" xmlns="http://www.w3.org/2000/svg">
<path d="M12 3C9.0791 3 6.60645 3.53613 4.94531 4.03125C3.35449 4.50293 2.25 5.97656 2.25 7.64062V9.75C2.25 10.5703 2.92969 11.25 3.75 11.25H6.75C7.57031 11.25 8.25 10.5703 8.25 9.75V7.78125C8.39062 7.7168 8.41992 7.69043 8.83594 7.57031C9.51855 7.37109 10.5615 7.17188 12 7.17188C13.4385 7.17188 14.4814 7.37109 15.1641 7.57031C15.5801 7.69043 15.6094 7.7168 15.75 7.78125V9.75C15.75 10.5703 16.4297 11.25 17.25 11.25H20.25C21.0703 11.25 21.75 10.5703 21.75 9.75V7.64062C21.75 5.97656 20.6455 4.50586 19.0547 4.03125C17.3936 3.53906 14.9209 3 12 3ZM12 4.5C14.7363 4.5 17.0771 4.99805 18.6328 5.46094C19.6025 5.74805 20.25 6.63574 20.25 7.64062V9.75H17.25V6.84375L16.875 6.63281C16.875 6.63281 16.3975 6.35449 15.5859 6.11719C14.7744 5.87988 13.582 5.67188 12 5.67188C10.418 5.67188 9.22559 5.87988 8.41406 6.11719C7.60254 6.35449 7.125 6.63281 7.125 6.63281L6.75 6.84375V9.75H3.75V7.64062C3.75 6.63574 4.39746 5.74805 5.36719 5.46094C6.92285 4.99805 9.26367 4.5 12 4.5ZM7.5 12.75C6.6709 12.75 6 13.4209 6 14.25C6 15.0791 6.6709 15.75 7.5 15.75C8.3291 15.75 9 15.0791 9 14.25C9 13.4209 8.3291 12.75 7.5 12.75ZM12 12.75C11.1709 12.75 10.5 13.4209 10.5 14.25C10.5 15.0791 11.1709 15.75 12 15.75C12.8291 15.75 13.5 15.0791 13.5 14.25C13.5 13.4209 12.8291 12.75 12 12.75ZM16.5 12.75C15.6709 12.75 15 13.4209 15 14.25C15 15.0791 15.6709 15.75 16.5 15.75C17.3291 15.75 18 15.0791 18 14.25C18 13.4209 17.3291 12.75 16.5 12.75ZM7.5 17.25C6.6709 17.25 6 17.9209 6 18.75C6 19.5791 6.6709 20.25 7.5 20.25C8.3291 20.25 9 19.5791 9 18.75C9 17.9209 8.3291 17.25 7.5 17.25ZM12 17.25C11.1709 17.25 10.5 17.9209 10.5 18.75C10.5 19.5791 11.1709 20.25 12 20.25C12.8291 20.25 13.5 19.5791 13.5 18.75C13.5 17.9209 12.8291 17.25 12 17.25ZM16.5 17.25C15.6709 17.25 15 17.9209 15 18.75C15 19.5791 15.6709 20.25 16.5 20.25C17.3291 20.25 18 19.5791 18 18.75C18 17.9209 17.3291 17.25 16.5 17.25Z" fill="black"/>
</svg>
