<svg width="166" height="172" viewBox="0 0 166 172" fill="none" xmlns="http://www.w3.org/2000/svg">
<g filter="url(#filter0_d_737_2375)">
<path d="M81.931 40.8864C87.4464 33.4689 98.5536 33.4689 104.069 40.8864V40.8864C106.338 43.9383 109.767 45.9179 113.545 46.3572V46.3572C122.726 47.4249 128.28 57.044 124.614 65.5292V65.5292C123.105 69.0205 123.105 72.9795 124.614 76.4708V76.4708C128.28 84.956 122.726 94.5751 113.545 95.6428V95.6428C109.767 96.0821 106.338 98.0617 104.069 101.114V101.114C98.5536 108.531 87.4464 108.531 81.931 101.114V101.114C79.6617 98.0617 76.233 96.0821 72.4553 95.6428V95.6428C63.2739 94.5751 57.7203 84.956 61.3863 76.4708V76.4708C62.8947 72.9796 62.8947 69.0205 61.3864 65.5292V65.5292C57.7203 57.044 63.2739 47.4249 72.4553 46.3572V46.3572C76.233 45.9179 79.6617 43.9383 81.931 40.8864V40.8864Z" fill="#0047FF"/>
</g>
<path d="M78.9155 68V59.2727H82.2564C82.8871 59.2727 83.4112 59.3722 83.8288 59.571C84.2493 59.767 84.5632 60.0355 84.7706 60.3764C84.9808 60.7173 85.0859 61.1037 85.0859 61.5355C85.0859 61.8906 85.0178 62.1946 84.8814 62.4474C84.745 62.6974 84.5618 62.9006 84.3317 63.0568C84.1016 63.2131 83.8445 63.3253 83.5604 63.3935V63.4787C83.87 63.4957 84.1669 63.5909 84.451 63.7642C84.7379 63.9347 84.9723 64.1761 85.1541 64.4886C85.3359 64.8011 85.4268 65.179 85.4268 65.6222C85.4268 66.0739 85.3175 66.4801 85.0987 66.8409C84.88 67.1989 84.5504 67.4815 84.1101 67.6889C83.6697 67.8963 83.1158 68 82.4482 68H78.9155ZM80.4964 66.679H82.1967C82.7706 66.679 83.1839 66.5696 83.4368 66.3509C83.6925 66.1293 83.8203 65.8452 83.8203 65.4986C83.8203 65.2401 83.7564 65.0071 83.6286 64.7997C83.5007 64.5895 83.3189 64.4247 83.0831 64.3054C82.8473 64.1832 82.5661 64.1222 82.2393 64.1222H80.4964V66.679ZM80.4964 62.9844H82.0604C82.3331 62.9844 82.5788 62.9347 82.7976 62.8352C83.0163 62.733 83.1882 62.5895 83.3132 62.4048C83.4411 62.2173 83.505 61.9957 83.505 61.7401C83.505 61.402 83.3857 61.1236 83.147 60.9048C82.9112 60.6861 82.5604 60.5767 82.0945 60.5767H80.4964V62.9844ZM86.8022 68V59.2727H92.4783V60.598H88.3832V62.9673H92.1843V64.2926H88.3832V66.6747H92.5124V68H86.8022ZM98.8342 61.6719C98.7944 61.2997 98.6268 61.0099 98.3313 60.8026C98.0387 60.5952 97.658 60.4915 97.1893 60.4915C96.8597 60.4915 96.5771 60.5412 96.3413 60.6406C96.1055 60.7401 95.9251 60.875 95.8001 61.0455C95.6751 61.2159 95.6112 61.4105 95.6083 61.6293C95.6083 61.8111 95.6495 61.9687 95.7319 62.1023C95.8171 62.2358 95.9322 62.3494 96.0771 62.4432C96.2219 62.5341 96.3825 62.6108 96.5586 62.6733C96.7347 62.7358 96.9123 62.7884 97.0913 62.831L97.9094 63.0355C98.239 63.1122 98.5558 63.2159 98.8597 63.3466C99.1665 63.4773 99.4407 63.642 99.6822 63.8409C99.9265 64.0398 100.12 64.2798 100.262 64.5611C100.404 64.8423 100.475 65.1719 100.475 65.5497C100.475 66.0611 100.344 66.5114 100.083 66.9006C99.8214 67.2869 99.4435 67.5895 98.9492 67.8082C98.4577 68.0241 97.8626 68.1321 97.1637 68.1321C96.4847 68.1321 95.8952 68.027 95.3952 67.8168C94.8981 67.6065 94.5089 67.2997 94.2276 66.8963C93.9492 66.4929 93.7987 66.0014 93.7759 65.4219H95.3313C95.354 65.7259 95.4478 65.9787 95.6126 66.1804C95.7773 66.3821 95.9918 66.5327 96.256 66.6321C96.5231 66.7315 96.8214 66.7812 97.1509 66.7812C97.4947 66.7812 97.7958 66.7301 98.0543 66.6278C98.3157 66.5227 98.5202 66.3778 98.668 66.1932C98.8157 66.0057 98.891 65.7869 98.8938 65.5369C98.891 65.3097 98.8242 65.1222 98.6935 64.9744C98.5629 64.8239 98.3796 64.6989 98.1438 64.5994C97.9109 64.4972 97.6381 64.4062 97.3256 64.3267L96.3327 64.071C95.614 63.8864 95.0458 63.6065 94.6282 63.2315C94.2134 62.8537 94.006 62.3523 94.006 61.7273C94.006 61.2131 94.1452 60.7628 94.4237 60.3764C94.7049 59.9901 95.087 59.6903 95.57 59.4773C96.0529 59.2614 96.5998 59.1534 97.2106 59.1534C97.8299 59.1534 98.3725 59.2614 98.8384 59.4773C99.3072 59.6903 99.6751 59.9872 99.9421 60.3679C100.209 60.7457 100.347 61.1804 100.355 61.6719H98.8342ZM101.501 60.598V59.2727H108.464V60.598H105.766V68H104.198V60.598H101.501ZM78.5107 78.2173H76.9169C76.8714 77.956 76.7876 77.7244 76.6655 77.5227C76.5433 77.3182 76.3913 77.1449 76.2095 77.0028C76.0277 76.8608 75.8203 76.7543 75.5874 76.6832C75.3572 76.6094 75.1087 76.5724 74.8416 76.5724C74.3672 76.5724 73.9467 76.6918 73.5803 76.9304C73.2138 77.1662 72.9268 77.5128 72.7195 77.9702C72.5121 78.4247 72.4084 78.9801 72.4084 79.6364C72.4084 80.304 72.5121 80.8665 72.7195 81.3239C72.9297 81.7784 73.2166 82.1222 73.5803 82.3551C73.9467 82.5852 74.3658 82.7003 74.8374 82.7003C75.0987 82.7003 75.343 82.6662 75.5703 82.598C75.8004 82.527 76.0064 82.4233 76.1882 82.2869C76.3729 82.1506 76.5277 81.983 76.6527 81.7841C76.7805 81.5852 76.8686 81.358 76.9169 81.1023L78.5107 81.1108C78.451 81.5256 78.3217 81.9148 78.1229 82.2784C77.9268 82.642 77.6697 82.9631 77.3516 83.2415C77.0334 83.517 76.6612 83.733 76.2351 83.8892C75.8089 84.0426 75.3359 84.1193 74.8161 84.1193C74.049 84.1193 73.3643 83.9418 72.7621 83.5866C72.1598 83.2315 71.6854 82.7188 71.3388 82.0483C70.9922 81.3778 70.8189 80.5739 70.8189 79.6364C70.8189 78.696 70.9936 77.892 71.343 77.2244C71.6925 76.554 72.1683 76.0412 72.7706 75.6861C73.3729 75.331 74.0547 75.1534 74.8161 75.1534C75.3018 75.1534 75.7536 75.2216 76.1712 75.358C76.5888 75.4943 76.9609 75.6946 77.2876 75.9588C77.6143 76.2202 77.8828 76.5412 78.093 76.9219C78.3061 77.2997 78.4453 77.7315 78.5107 78.2173ZM79.9585 84V75.2727H81.5394V78.9673H85.5835V75.2727H87.1687V84H85.5835V80.2926H81.5394V84H79.9585ZM96.6864 79.6364C96.6864 80.5767 96.5103 81.3821 96.158 82.0526C95.8086 82.7202 95.3313 83.2315 94.7262 83.5866C94.1239 83.9418 93.4407 84.1193 92.6765 84.1193C91.9123 84.1193 91.2276 83.9418 90.6225 83.5866C90.0202 83.2287 89.543 82.7159 89.1907 82.0483C88.8413 81.3778 88.6665 80.5739 88.6665 79.6364C88.6665 78.696 88.8413 77.892 89.1907 77.2244C89.543 76.554 90.0202 76.0412 90.6225 75.6861C91.2276 75.331 91.9123 75.1534 92.6765 75.1534C93.4407 75.1534 94.1239 75.331 94.7262 75.6861C95.3313 76.0412 95.8086 76.554 96.158 77.2244C96.5103 77.892 96.6864 78.696 96.6864 79.6364ZM95.0969 79.6364C95.0969 78.9744 94.9933 78.4162 94.7859 77.9616C94.5813 77.5043 94.2972 77.1591 93.9336 76.9261C93.57 76.6903 93.1509 76.5724 92.6765 76.5724C92.2021 76.5724 91.783 76.6903 91.4194 76.9261C91.0558 77.1591 90.7702 77.5043 90.5629 77.9616C90.3583 78.4162 90.256 78.9744 90.256 79.6364C90.256 80.2983 90.3583 80.858 90.5629 81.3153C90.7702 81.7699 91.0558 82.1151 91.4194 82.3509C91.783 82.5838 92.2021 82.7003 92.6765 82.7003C93.1509 82.7003 93.57 82.5838 93.9336 82.3509C94.2972 82.1151 94.5813 81.7699 94.7859 81.3153C94.9933 80.858 95.0969 80.2983 95.0969 79.6364ZM99.7621 75.2727V84H98.1811V75.2727H99.7621ZM108.944 78.2173H107.35C107.305 77.956 107.221 77.7244 107.099 77.5227C106.977 77.3182 106.825 77.1449 106.643 77.0028C106.461 76.8608 106.254 76.7543 106.021 76.6832C105.791 76.6094 105.542 76.5724 105.275 76.5724C104.801 76.5724 104.38 76.6918 104.014 76.9304C103.647 77.1662 103.36 77.5128 103.153 77.9702C102.946 78.4247 102.842 78.9801 102.842 79.6364C102.842 80.304 102.946 80.8665 103.153 81.3239C103.363 81.7784 103.65 82.1222 104.014 82.3551C104.38 82.5852 104.799 82.7003 105.271 82.7003C105.532 82.7003 105.777 82.6662 106.004 82.598C106.234 82.527 106.44 82.4233 106.622 82.2869C106.806 82.1506 106.961 81.983 107.086 81.7841C107.214 81.5852 107.302 81.358 107.35 81.1023L108.944 81.1108C108.885 81.5256 108.755 81.9148 108.556 82.2784C108.36 82.642 108.103 82.9631 107.785 83.2415C107.467 83.517 107.095 83.733 106.669 83.8892C106.243 84.0426 105.77 84.1193 105.25 84.1193C104.483 84.1193 103.798 83.9418 103.196 83.5866C102.593 83.2315 102.119 82.7188 101.772 82.0483C101.426 81.3778 101.252 80.5739 101.252 79.6364C101.252 78.696 101.427 77.892 101.777 77.2244C102.126 76.554 102.602 76.0412 103.204 75.6861C103.806 75.331 104.488 75.1534 105.25 75.1534C105.735 75.1534 106.187 75.2216 106.605 75.358C107.022 75.4943 107.395 75.6946 107.721 75.9588C108.048 76.2202 108.316 76.5412 108.527 76.9219C108.74 77.2997 108.879 77.7315 108.944 78.2173ZM110.392 84V75.2727H116.068V76.598H111.973V78.9673H115.774V80.2926H111.973V82.6747H116.102V84H110.392Z" fill="white"/>
<defs>
<filter id="filter0_d_737_2375" x="0.244629" y="0.323242" width="165.511" height="171.354" filterUnits="userSpaceOnUse" color-interpolation-filters="sRGB">
<feFlood flood-opacity="0" result="BackgroundImageFix"/>
<feColorMatrix in="SourceAlpha" type="matrix" values="0 0 0 0 0 0 0 0 0 0 0 0 0 0 0 0 0 0 127 0" result="hardAlpha"/>
<feOffset dx="-10" dy="15"/>
<feGaussianBlur stdDeviation="25"/>
<feComposite in2="hardAlpha" operator="out"/>
<feColorMatrix type="matrix" values="0 0 0 0 0 0 0 0 0 0.208833 0 0 0 0 0.750034 0 0 0 0.75 0"/>
<feBlend mode="normal" in2="BackgroundImageFix" result="effect1_dropShadow_737_2375"/>
<feBlend mode="normal" in="SourceGraphic" in2="effect1_dropShadow_737_2375" result="shape"/>
</filter>
</defs>
</svg>
