<svg width="54" height="52" viewBox="0 0 54 52" fill="none" xmlns="http://www.w3.org/2000/svg">
<path d="M17.8496 41.8703C17.8496 42.0854 17.6021 42.2574 17.2901 42.2574C16.9351 42.2897 16.6876 42.1176 16.6876 41.8703C16.6876 41.6553 16.9351 41.4832 17.2471 41.4832C17.5699 41.451 17.8496 41.623 17.8496 41.8703ZM14.5035 41.3865C14.4282 41.6015 14.6433 41.8488 14.9661 41.9133C15.2459 42.0209 15.5686 41.9133 15.6332 41.6983C15.6978 41.4832 15.4933 41.2359 15.1706 41.1391C14.8908 41.0639 14.5788 41.1714 14.5035 41.3865ZM19.2591 41.2037C18.9471 41.2789 18.7319 41.4832 18.7641 41.7305C18.7964 41.9456 19.0762 42.0854 19.3989 42.0101C19.711 41.9348 19.9261 41.7305 19.8939 41.5155C19.8616 41.3112 19.5711 41.1714 19.2591 41.2037ZM26.3387 0C11.4156 0 0 11.3224 0 26.2362C0 38.1607 7.50996 48.3648 18.2369 51.9562C19.6141 52.2035 20.0983 51.354 20.0983 50.6551C20.0983 49.9885 20.066 46.3111 20.066 44.0531C20.066 44.0531 12.5345 45.666 10.9529 40.8488C10.9529 40.8488 9.72637 37.7198 7.96185 36.9134C7.96185 36.9134 5.49798 35.2253 8.134 35.2575C8.134 35.2575 10.8131 35.4726 12.2871 38.0317C14.6433 42.1821 18.592 40.9886 20.1306 40.2789C20.378 38.5585 21.0774 37.365 21.8521 36.6553C15.8376 35.9887 9.76941 35.1177 9.76941 24.7738C9.76941 21.8169 10.5871 20.333 12.3086 18.4406C12.0288 17.7417 11.1143 14.86 12.5883 11.1396C14.837 10.4407 20.0122 14.0428 20.0122 14.0428C22.1641 13.4407 24.4773 13.1288 26.769 13.1288C29.0608 13.1288 31.374 13.4407 33.5258 14.0428C33.5258 14.0428 38.701 10.4299 40.9497 11.1396C42.4238 14.8707 41.5092 17.7417 41.2295 18.4406C42.951 20.3438 44.0054 21.8276 44.0054 24.7738C44.0054 35.15 37.6682 35.9779 31.6537 36.6553C32.6436 37.5048 33.4828 39.1177 33.4828 41.6445C33.4828 45.2681 33.4505 49.7519 33.4505 50.6336C33.4505 51.3325 33.9455 52.182 35.3119 51.9347C46.0711 48.3648 53.3659 38.1607 53.3659 26.2362C53.3659 11.3224 41.2617 0 26.3387 0ZM10.458 37.0854C10.3181 37.193 10.3504 37.4403 10.5333 37.6446C10.7055 37.8166 10.9529 37.8919 11.0928 37.7521C11.2327 37.6446 11.2004 37.3973 11.0175 37.193C10.8453 37.0209 10.5979 36.9457 10.458 37.0854ZM9.296 36.2145C9.22068 36.3543 9.32828 36.5263 9.54346 36.6338C9.71561 36.7414 9.93079 36.7091 10.0061 36.5586C10.0814 36.4188 9.97383 36.2468 9.75865 36.1392C9.54346 36.0747 9.37131 36.107 9.296 36.2145ZM12.782 40.0424C12.6098 40.1822 12.6744 40.5048 12.9219 40.709C13.1693 40.9564 13.4813 40.9886 13.6212 40.8166C13.7611 40.6768 13.6965 40.3542 13.4813 40.1499C13.2446 39.9026 12.9219 39.8703 12.782 40.0424ZM11.5554 38.4618C11.3833 38.5693 11.3833 38.8489 11.5554 39.0962C11.7276 39.3435 12.0181 39.451 12.158 39.3435C12.3301 39.2037 12.3301 38.9241 12.158 38.6768C12.0073 38.4295 11.7276 38.322 11.5554 38.4618Z" fill="white"/>
</svg>
