<?xml version="1.0" encoding="utf-8"?>
<!-- Generator: Adobe Illustrator 24.2.0, SVG Export Plug-In . SVG Version: 6.00 Build 0)  -->
<svg version="1.1" id="Layer_1" xmlns="http://www.w3.org/2000/svg" xmlns:xlink="http://www.w3.org/1999/xlink" x="0px" y="0px"
	 viewBox="0 0 62 62" style="enable-background:new 0 0 62 62;" xml:space="preserve">
<style type="text/css">
	.st0{clip-path:url(#SVGID_2_);}
	.st1{fill:#2B2B2B;}
</style>
<g>
	<defs>
		<rect id="SVGID_1_" width="62" height="62"/>
	</defs>
	<clipPath id="SVGID_2_">
		<use xlink:href="#SVGID_1_"  style="overflow:visible;"/>
	</clipPath>
	<g class="st0">
		<path class="st1" d="M0,39.3c0-25.6-0.1-24.6,1.9-28.6C4.3,5.9,8.7,2.3,14.6,0.5C16.2,0,16.9,0,38.5,0h22.2v8.5v8.5H40.6
			c-16.3,0-20.3,0.1-20.9,0.3c-1.4,0.6-2.4,2-2.6,3.5C17,21.5,17,31.1,17,42.1L17.1,62H8.5H0L0,39.3z M21.8,53.1v-8.9h10.7
			c8.4,0,10.8-0.1,11.1-0.3c0.7-0.5,1-1.6,1-3.7v-2H33.1H21.8v-7c0-5.5,0.1-7.1,0.4-7.9c0.7-1.7,0.1-1.6,20.8-1.6h18.6l-0.1,13
			c-0.1,12.6-0.1,13-0.7,14.9c-1.6,5.2-5.4,9.2-11,11.4l-2.1,0.8l-13,0.1l-13,0.1L21.8,53.1L21.8,53.1z"/>
	</g>
</g>
</svg>
