<svg width="55" height="62" viewBox="0 0 55 62" fill="none" xmlns="http://www.w3.org/2000/svg">
<path fill-rule="evenodd" clip-rule="evenodd" d="M54.4342 51.2945C48.7502 57.8522 40.3595 62 31 62C13.8792 62 0 48.1208 0 31C0 13.8792 13.8792 0 31 0C40.3593 0 48.75 4.14768 54.434 10.7052L45.5065 18.4367C41.9878 14.3772 36.7937 11.8096 30.9998 11.8096C20.4012 11.8096 11.8093 20.4015 11.8093 31.0001C11.8093 41.5987 20.4012 50.1906 30.9998 50.1906C36.7938 50.1906 41.9882 47.6228 45.5069 43.5632L54.4342 51.2945Z" fill="black"/>
<ellipse cx="31.0001" cy="31.0003" rx="10.3333" ry="10.3333" fill="black"/>
</svg>
