<?xml version="1.0" encoding="utf-8"?>
<!-- Generator: Adobe Illustrator 24.2.0, SVG Export Plug-In . SVG Version: 6.00 Build 0)  -->
<svg version="1.1" id="Layer_1" xmlns="http://www.w3.org/2000/svg" xmlns:xlink="http://www.w3.org/1999/xlink" x="0px" y="0px"
	 viewBox="0 0 88 62" style="enable-background:new 0 0 88 62;" xml:space="preserve">
<style type="text/css">
	.st0{clip-path:url(#SVGID_2_);}
	.st1{fill:#232222;}
</style>
<g>
	<defs>
		<rect id="SVGID_1_" width="88" height="62"/>
	</defs>
	<clipPath id="SVGID_2_">
		<use xlink:href="#SVGID_1_"  style="overflow:visible;"/>
	</clipPath>
	<g class="st0">
		<path class="st1" d="M67.6,35.2c-4,0-7.8-1.7-11.2-4.5l0.8-3.9l0-0.2c0.8-4.2,3.1-11.1,10.3-11.1c5.4,0,9.8,4.4,9.8,9.8
			C77.5,30.8,73.1,35.2,67.6,35.2L67.6,35.2z M67.6,5.6c-9.3,0-16.4,6-19.4,15.9C43.8,14.8,40.5,6.8,38.5,0h-10v25.9
			c0,5.1-4.2,9.3-9.3,9.3c-5.1,0-9.3-4.2-9.3-9.3V0H0v25.9c0,10.6,8.6,19.3,19.2,19.3c10.6,0,19.2-8.7,19.2-19.3v-4.3
			c1.9,4,4.3,8.1,7.2,11.7L39.6,62h10.2l4.4-20.8c3.9,2.5,8.3,4,13.4,4c10.9,0,19.8-8.9,19.8-19.9C87.5,14.5,78.6,5.6,67.6,5.6
			L67.6,5.6z"/>
	</g>
</g>
</svg>
