<?xml version="1.0" encoding="utf-8"?>
<!-- Generator: Adobe Illustrator 24.2.0, SVG Export Plug-In . SVG Version: 6.00 Build 0)  -->
<svg version="1.1" id="Layer_1" xmlns="http://www.w3.org/2000/svg" xmlns:xlink="http://www.w3.org/1999/xlink" x="0px" y="0px"
	 viewBox="0 0 110 62" style="enable-background:new 0 0 110 62;" xml:space="preserve">
<style type="text/css">
	.st0{fill:#232222;}
</style>
<path class="st0" d="M10,3v55.5h26.8c2.5,0,19.6-0.5,19.6-16.1c0-9.8-6.7-13.1-10.1-14.1c2.5-1.2,7.5-4,7.5-11.5
	C53.8,12.6,53.2,3,36.1,3H10z M71.2,8.2v5.1h20.7V8.2H71.2z M22.2,12.5h11.4c1.1,0,8.3-0.6,8.3,6.4c0,5.9-5.3,6.6-7.4,6.6H22.2V12.5
	z M82,17.8c-15.7,0-18.9,13.6-18.9,19.5c0,17.5,14.4,19.5,18.9,19.5c12.4,0,15.9-8,17.4-12.5h-9c-0.4,1.1-3,4.9-8,4.9
	c-8.4,0-9.1-6.5-9.1-9.5H100C100.5,29.6,96.1,17.8,82,17.8z M81.8,25.4c2.5,0,4.5,0.7,5.7,2.1c1.2,1.3,2.1,3.3,2.3,5.9H73.3
	c0-0.7,0.2-1.5,0.5-2.4c0.3-0.9,0.7-1.8,1.3-2.6c0.7-0.8,1.6-1.5,2.6-2.1C78.8,25.7,80.1,25.4,81.8,25.4z M22.2,33.8h13.2
	c2.6,0,8.8,0.4,8.8,8c0,7.3-7.8,7.3-9,7.3h-13V33.8z"/>
</svg>
