<svg width="24" height="24" viewBox="0 0 24 24" fill="none" xmlns="http://www.w3.org/2000/svg">
<path d="M0 2C0 0.89543 0.895431 0 2 0H6C7.10457 0 8 0.895431 8 2V22C8 23.1046 7.10457 24 6 24H2C0.895431 24 0 23.1046 0 22V2Z" fill="white"/>
<path d="M22 24C23.1046 24 24 23.1046 24 22V18C24 16.8954 23.1046 16 22 16H18C16.8954 16 16 15.1046 16 14V10C16 8.89543 15.1046 8 14 8H10C8.89543 8 8 7.10457 8 6V18C8 16.8954 8.89543 16 10 16H14C15.1046 16 16 16.8954 16 18V22C16 23.1046 16.8954 24 18 24H22Z" fill="white"/>
</svg>
