<?xml version="1.0" encoding="utf-8"?>
<!-- Generator: Adobe Illustrator 23.0.1, SVG Export Plug-In . SVG Version: 6.00 Build 0)  -->
<svg version="1.1" id="Warstwa_1" xmlns="http://www.w3.org/2000/svg" xmlns:xlink="http://www.w3.org/1999/xlink" x="0px" y="0px"
	 viewBox="0 0 116.1 67.4" style="enable-background:new 0 0 116.1 67.4;" xml:space="preserve">
<style type="text/css">
	.st0{fill:#FFFFFF;}
	.st1{enable-background:new    ;}
</style>
<title>wk.pages-logo-white</title>
<polygon class="st0" points="19.1,55.8 0,55.8 0,37.1 37.6,0 57.7,0 57.7,18.4 "/>
<polygon class="st0" points="64.1,55.8 45.1,55.8 45.1,37.1 82.6,0 102.8,0 102.8,18.4 "/>
<rect class="st0" width="21.8" height="38.7"/>
<rect x="83.1" y="36.4" class="st0" width="19.4" height="19.4"/>
<g class="st1">
	<path class="st0" d="M7.8,62.9c0,1.8-1.3,2.4-3.1,2.4H2.6v2H0v-6.7h5C6.9,60.6,7.8,61.4,7.8,62.9z M5.1,62.9c0-0.4-0.3-0.6-0.9-0.6
		H2.4v1.2h1.9C4.9,63.5,5.1,63.3,5.1,62.9z"/>
</g>
<g class="st1">
	<path class="st0" d="M13.8,66.3h-3l-0.4,0.9H7.7l3.1-6.7h3l3.1,6.7h-2.7L13.8,66.3z M13.1,64.6l-0.8-2.1l-0.8,2L13.1,64.6
		L13.1,64.6z"/>
</g>
<g class="st1">
	<path class="st0" d="M21.9,67.4c-2.3,0-4.6-0.8-4.6-3.5s2.3-3.5,4.5-3.5c2.1,0,3.9,0.7,4.3,2.4h-2.7c-0.3-0.4-0.7-0.7-1.6-0.7
		c-1.2,0-1.8,0.7-1.8,1.8c0,1.1,0.8,1.8,2,1.8c1,0,1.5-0.5,1.6-0.8h-2v-1.6h4.6C26.5,66.2,24.6,67.4,21.9,67.4z"/>
	<path class="st0" d="M34.7,67.2h-7.1v-6.7h7v1.7h-4.3V63h4.1v1.6h-4.1v0.9h4.5L34.7,67.2L34.7,67.2z"/>
	<path class="st0" d="M44.2,65.1c0,1.8-1.6,2.3-4.2,2.3c-3,0-4.1-0.9-4.1-2.3h2.8c0,0.5,0.4,0.7,1.5,0.7c0.9,0,1.3-0.1,1.3-0.4
		c0-0.4-0.3-0.4-2.4-0.6c-2.1-0.3-3-0.7-3-2.1c0-1.5,1.3-2.2,3.9-2.2c2.9,0,3.9,0.9,3.9,2.2h-2.7c0-0.4-0.3-0.6-1.2-0.6
		c-0.9,0-1.2,0.2-1.2,0.5c0,0.4,0.5,0.4,1.7,0.5C42.7,63.2,44.2,63.3,44.2,65.1z"/>
</g>
<path class="st0" d="M113.6,48.6v4.7h-4.7v-4.7H113.6 M116.1,46.1h-9.8v9.7h9.7L116.1,46.1L116.1,46.1z"/>
</svg>
