<svg width="160" height="24" viewBox="0 0 160 24" fill="none" xmlns="http://www.w3.org/2000/svg">
<path d="M0 2C0 0.89543 0.895431 0 2 0H6C7.10457 0 8 0.895431 8 2V22C8 23.1046 7.10457 24 6 24H2C0.895431 24 0 23.1046 0 22V2Z" fill="white"/>
<path d="M22 24C23.1046 24 24 23.1046 24 22V18C24 16.8954 23.1046 16 22 16H18C16.8954 16 16 15.1046 16 14V10C16 8.89543 15.1046 8 14 8H10C8.89543 8 8 7.10457 8 6V18C8 16.8954 8.89543 16 10 16H14C15.1046 16 16 16.8954 16 18V22C16 23.1046 16.8954 24 18 24H22Z" fill="white"/>
<mask id="path-2-outside-1_432_2025" maskUnits="userSpaceOnUse" x="41" y="2.5" width="107" height="21" fill="black">
<rect fill="white" x="41" y="2.5" width="107" height="21"/>
<path d="M42.1797 4.69531H43.7148V12.1836H54.4023V4.69531H55.9375V21.5H54.4023V13.5312H43.7148V21.5H42.1797V4.69531ZM60.782 16.3203V8.78516H62.2234V16.0742C62.2234 17.5117 62.6063 18.6211 63.3719 19.4023C64.1453 20.1758 65.2352 20.5625 66.6414 20.5625C67.993 20.5625 69.1023 20.1289 69.9695 19.2617C70.8367 18.3945 71.2703 17.293 71.2703 15.957V8.78516H72.7352V21.5H71.2938V19.4375H71.2469C70.7625 20.2109 70.0945 20.8086 69.243 21.2305C68.3992 21.6523 67.4344 21.8633 66.3484 21.8633C64.6063 21.8633 63.243 21.3711 62.2586 20.3867C61.2742 19.4023 60.782 18.0469 60.782 16.3203ZM78.7516 19.6016H78.7047V21.5H77.3102V3.98047H78.7516V10.6719H78.7984C79.3375 9.96094 80.0523 9.41016 80.943 9.01953C81.8414 8.62109 82.8258 8.42188 83.8961 8.42188C85.1227 8.42188 86.2398 8.71094 87.2477 9.28906C88.2633 9.85938 89.0641 10.6602 89.65 11.6914C90.2438 12.7227 90.5406 13.8711 90.5406 15.1367C90.5406 16.4492 90.2438 17.6211 89.65 18.6523C89.0641 19.6758 88.2555 20.4688 87.2242 21.0312C86.2008 21.5859 85.0484 21.8633 83.7672 21.8633C82.7281 21.8633 81.7672 21.6602 80.8844 21.2539C80.0016 20.8477 79.2906 20.2969 78.7516 19.6016ZM89.0992 15.1367C89.0992 13.5352 88.5992 12.2305 87.5992 11.2227C86.5992 10.2148 85.3375 9.71094 83.8141 9.71094C82.8922 9.71094 82.0406 9.89844 81.2594 10.2734C80.4781 10.6406 79.8648 11.1328 79.4195 11.75C78.9742 12.3672 78.7516 13.0312 78.7516 13.7422V16.5312C78.7281 17.2266 78.943 17.8906 79.3961 18.5234C79.8492 19.1484 80.4625 19.6523 81.2359 20.0352C82.0094 20.4102 82.8297 20.5859 83.6969 20.5625C85.2984 20.5625 86.5992 20.0703 87.5992 19.0859C88.5992 18.1016 89.0992 16.7852 89.0992 15.1367ZM95.7367 10.0039H92.9945V8.78516H95.7367V7.39062C95.7367 6.57031 95.9711 5.93359 96.4398 5.48047C96.9164 5.02734 97.6078 4.80078 98.5141 4.80078H101.256V6.08984H98.6078C98.1156 6.08984 97.7562 6.20703 97.5297 6.44141C97.3031 6.66797 97.1898 7.02344 97.1898 7.50781V8.78516H101.76V10.0039H97.1898V21.5H95.7367V10.0039ZM105.116 19.9531C103.827 18.6797 103.183 17.0742 103.183 15.1367C103.183 13.1992 103.827 11.5977 105.116 10.332C106.413 9.05859 108.05 8.42188 110.027 8.42188C111.292 8.39844 112.452 8.67969 113.507 9.26562C114.562 9.85156 115.386 10.6641 115.98 11.7031C116.581 12.7422 116.87 13.8867 116.847 15.1367C116.87 16.3867 116.581 17.5352 115.98 18.582C115.386 19.6211 114.562 20.4336 113.507 21.0195C112.452 21.6055 111.292 21.8867 110.027 21.8633C108.05 21.8633 106.413 21.2266 105.116 19.9531ZM113.894 19.0625C114.902 18.0547 115.405 16.7461 115.405 15.1367C115.405 13.5273 114.902 12.2227 113.894 11.2227C112.894 10.2148 111.605 9.71094 110.027 9.71094C108.456 9.71094 107.163 10.2148 106.148 11.2227C105.132 12.2305 104.624 13.5352 104.624 15.1367C104.624 16.7383 105.132 18.043 106.148 19.0508C107.163 20.0586 108.456 20.5625 110.027 20.5625C111.605 20.5625 112.894 20.0625 113.894 19.0625ZM120.965 3.98047H122.406V21.5H120.965V3.98047ZM127.016 8.78516H128.458V21.5H127.016V8.78516ZM126.782 4.67188H128.704V6.5H126.782V4.67188ZM134.521 19.9531C133.232 18.6797 132.588 17.0742 132.588 15.1367C132.588 13.1992 133.232 11.5977 134.521 10.332C135.818 9.05859 137.455 8.42188 139.431 8.42188C140.697 8.39844 141.857 8.67969 142.912 9.26562C143.966 9.85156 144.791 10.6641 145.384 11.7031C145.986 12.7422 146.275 13.8867 146.252 15.1367C146.275 16.3867 145.986 17.5352 145.384 18.582C144.791 19.6211 143.966 20.4336 142.912 21.0195C141.857 21.6055 140.697 21.8867 139.431 21.8633C137.455 21.8633 135.818 21.2266 134.521 19.9531ZM143.298 19.0625C144.306 18.0547 144.81 16.7461 144.81 15.1367C144.81 13.5273 144.306 12.2227 143.298 11.2227C142.298 10.2148 141.009 9.71094 139.431 9.71094C137.861 9.71094 136.568 10.2148 135.552 11.2227C134.537 12.2305 134.029 13.5352 134.029 15.1367C134.029 16.7383 134.537 18.043 135.552 19.0508C136.568 20.0586 137.861 20.5625 139.431 20.5625C141.009 20.5625 142.298 20.0625 143.298 19.0625Z"/>
</mask>
<path d="M42.1797 4.69531H43.7148V12.1836H54.4023V4.69531H55.9375V21.5H54.4023V13.5312H43.7148V21.5H42.1797V4.69531ZM60.782 16.3203V8.78516H62.2234V16.0742C62.2234 17.5117 62.6063 18.6211 63.3719 19.4023C64.1453 20.1758 65.2352 20.5625 66.6414 20.5625C67.993 20.5625 69.1023 20.1289 69.9695 19.2617C70.8367 18.3945 71.2703 17.293 71.2703 15.957V8.78516H72.7352V21.5H71.2938V19.4375H71.2469C70.7625 20.2109 70.0945 20.8086 69.243 21.2305C68.3992 21.6523 67.4344 21.8633 66.3484 21.8633C64.6063 21.8633 63.243 21.3711 62.2586 20.3867C61.2742 19.4023 60.782 18.0469 60.782 16.3203ZM78.7516 19.6016H78.7047V21.5H77.3102V3.98047H78.7516V10.6719H78.7984C79.3375 9.96094 80.0523 9.41016 80.943 9.01953C81.8414 8.62109 82.8258 8.42188 83.8961 8.42188C85.1227 8.42188 86.2398 8.71094 87.2477 9.28906C88.2633 9.85938 89.0641 10.6602 89.65 11.6914C90.2438 12.7227 90.5406 13.8711 90.5406 15.1367C90.5406 16.4492 90.2438 17.6211 89.65 18.6523C89.0641 19.6758 88.2555 20.4688 87.2242 21.0312C86.2008 21.5859 85.0484 21.8633 83.7672 21.8633C82.7281 21.8633 81.7672 21.6602 80.8844 21.2539C80.0016 20.8477 79.2906 20.2969 78.7516 19.6016ZM89.0992 15.1367C89.0992 13.5352 88.5992 12.2305 87.5992 11.2227C86.5992 10.2148 85.3375 9.71094 83.8141 9.71094C82.8922 9.71094 82.0406 9.89844 81.2594 10.2734C80.4781 10.6406 79.8648 11.1328 79.4195 11.75C78.9742 12.3672 78.7516 13.0312 78.7516 13.7422V16.5312C78.7281 17.2266 78.943 17.8906 79.3961 18.5234C79.8492 19.1484 80.4625 19.6523 81.2359 20.0352C82.0094 20.4102 82.8297 20.5859 83.6969 20.5625C85.2984 20.5625 86.5992 20.0703 87.5992 19.0859C88.5992 18.1016 89.0992 16.7852 89.0992 15.1367ZM95.7367 10.0039H92.9945V8.78516H95.7367V7.39062C95.7367 6.57031 95.9711 5.93359 96.4398 5.48047C96.9164 5.02734 97.6078 4.80078 98.5141 4.80078H101.256V6.08984H98.6078C98.1156 6.08984 97.7562 6.20703 97.5297 6.44141C97.3031 6.66797 97.1898 7.02344 97.1898 7.50781V8.78516H101.76V10.0039H97.1898V21.5H95.7367V10.0039ZM105.116 19.9531C103.827 18.6797 103.183 17.0742 103.183 15.1367C103.183 13.1992 103.827 11.5977 105.116 10.332C106.413 9.05859 108.05 8.42188 110.027 8.42188C111.292 8.39844 112.452 8.67969 113.507 9.26562C114.562 9.85156 115.386 10.6641 115.98 11.7031C116.581 12.7422 116.87 13.8867 116.847 15.1367C116.87 16.3867 116.581 17.5352 115.98 18.582C115.386 19.6211 114.562 20.4336 113.507 21.0195C112.452 21.6055 111.292 21.8867 110.027 21.8633C108.05 21.8633 106.413 21.2266 105.116 19.9531ZM113.894 19.0625C114.902 18.0547 115.405 16.7461 115.405 15.1367C115.405 13.5273 114.902 12.2227 113.894 11.2227C112.894 10.2148 111.605 9.71094 110.027 9.71094C108.456 9.71094 107.163 10.2148 106.148 11.2227C105.132 12.2305 104.624 13.5352 104.624 15.1367C104.624 16.7383 105.132 18.043 106.148 19.0508C107.163 20.0586 108.456 20.5625 110.027 20.5625C111.605 20.5625 112.894 20.0625 113.894 19.0625ZM120.965 3.98047H122.406V21.5H120.965V3.98047ZM127.016 8.78516H128.458V21.5H127.016V8.78516ZM126.782 4.67188H128.704V6.5H126.782V4.67188ZM134.521 19.9531C133.232 18.6797 132.588 17.0742 132.588 15.1367C132.588 13.1992 133.232 11.5977 134.521 10.332C135.818 9.05859 137.455 8.42188 139.431 8.42188C140.697 8.39844 141.857 8.67969 142.912 9.26562C143.966 9.85156 144.791 10.6641 145.384 11.7031C145.986 12.7422 146.275 13.8867 146.252 15.1367C146.275 16.3867 145.986 17.5352 145.384 18.582C144.791 19.6211 143.966 20.4336 142.912 21.0195C141.857 21.6055 140.697 21.8867 139.431 21.8633C137.455 21.8633 135.818 21.2266 134.521 19.9531ZM143.298 19.0625C144.306 18.0547 144.81 16.7461 144.81 15.1367C144.81 13.5273 144.306 12.2227 143.298 11.2227C142.298 10.2148 141.009 9.71094 139.431 9.71094C137.861 9.71094 136.568 10.2148 135.552 11.2227C134.537 12.2305 134.029 13.5352 134.029 15.1367C134.029 16.7383 134.537 18.043 135.552 19.0508C136.568 20.0586 137.861 20.5625 139.431 20.5625C141.009 20.5625 142.298 20.0625 143.298 19.0625Z" fill="white"/>
<path d="M42.1797 4.69531V3.69531H41.1797V4.69531H42.1797ZM43.7148 4.69531H44.7148V3.69531H43.7148V4.69531ZM43.7148 12.1836H42.7148V13.1836H43.7148V12.1836ZM54.4023 12.1836V13.1836H55.4023V12.1836H54.4023ZM54.4023 4.69531V3.69531H53.4023V4.69531H54.4023ZM55.9375 4.69531H56.9375V3.69531H55.9375V4.69531ZM55.9375 21.5V22.5H56.9375V21.5H55.9375ZM54.4023 21.5H53.4023V22.5H54.4023V21.5ZM54.4023 13.5312H55.4023V12.5312H54.4023V13.5312ZM43.7148 13.5312V12.5312H42.7148V13.5312H43.7148ZM43.7148 21.5V22.5H44.7148V21.5H43.7148ZM42.1797 21.5H41.1797V22.5H42.1797V21.5ZM42.1797 5.69531H43.7148V3.69531H42.1797V5.69531ZM42.7148 4.69531V12.1836H44.7148V4.69531H42.7148ZM43.7148 13.1836H54.4023V11.1836H43.7148V13.1836ZM55.4023 12.1836V4.69531H53.4023V12.1836H55.4023ZM54.4023 5.69531H55.9375V3.69531H54.4023V5.69531ZM54.9375 4.69531V21.5H56.9375V4.69531H54.9375ZM55.9375 20.5H54.4023V22.5H55.9375V20.5ZM55.4023 21.5V13.5312H53.4023V21.5H55.4023ZM54.4023 12.5312H43.7148V14.5312H54.4023V12.5312ZM42.7148 13.5312V21.5H44.7148V13.5312H42.7148ZM43.7148 20.5H42.1797V22.5H43.7148V20.5ZM43.1797 21.5V4.69531H41.1797V21.5H43.1797ZM60.782 8.78516V7.78516H59.782V8.78516H60.782ZM62.2234 8.78516H63.2234V7.78516H62.2234V8.78516ZM63.3719 19.4023L62.6576 20.1023L62.6648 20.1095L63.3719 19.4023ZM71.2703 8.78516V7.78516H70.2703V8.78516H71.2703ZM72.7352 8.78516H73.7352V7.78516H72.7352V8.78516ZM72.7352 21.5V22.5H73.7352V21.5H72.7352ZM71.2938 21.5H70.2938V22.5H71.2938V21.5ZM71.2938 19.4375H72.2938V18.4375H71.2938V19.4375ZM71.2469 19.4375V18.4375H70.6932L70.3994 18.9067L71.2469 19.4375ZM69.243 21.2305L68.799 20.3344L68.7958 20.336L69.243 21.2305ZM61.782 16.3203V8.78516H59.782V16.3203H61.782ZM60.782 9.78516H62.2234V7.78516H60.782V9.78516ZM61.2234 8.78516V16.0742H63.2234V8.78516H61.2234ZM61.2234 16.0742C61.2234 17.6883 61.6568 19.081 62.6577 20.1023L64.0861 18.7024C63.5557 18.1612 63.2234 17.3351 63.2234 16.0742H61.2234ZM62.6648 20.1095C63.6752 21.1199 65.0492 21.5625 66.6414 21.5625V19.5625C65.4211 19.5625 64.6154 19.2317 64.079 18.6952L62.6648 20.1095ZM66.6414 21.5625C68.2285 21.5625 69.6019 21.0436 70.6766 19.9688L69.2624 18.5546C68.6028 19.2142 67.7575 19.5625 66.6414 19.5625V21.5625ZM70.6766 19.9688C71.749 18.8964 72.2703 17.5321 72.2703 15.957H70.2703C70.2703 17.0539 69.9244 17.8926 69.2624 18.5546L70.6766 19.9688ZM72.2703 15.957V8.78516H70.2703V15.957H72.2703ZM71.2703 9.78516H72.7352V7.78516H71.2703V9.78516ZM71.7352 8.78516V21.5H73.7352V8.78516H71.7352ZM72.7352 20.5H71.2938V22.5H72.7352V20.5ZM72.2938 21.5V19.4375H70.2938V21.5H72.2938ZM71.2938 18.4375H71.2469V20.4375H71.2938V18.4375ZM70.3994 18.9067C70.0173 19.5168 69.4921 19.9911 68.799 20.3344L69.6869 22.1265C70.697 21.6261 71.5077 20.9051 72.0944 19.9683L70.3994 18.9067ZM68.7958 20.336C68.1105 20.6787 67.3027 20.8633 66.3484 20.8633V22.8633C67.5661 22.8633 68.688 22.626 69.6902 22.1249L68.7958 20.336ZM66.3484 20.8633C64.801 20.8633 63.718 20.4319 62.9657 19.6796L61.5515 21.0938C62.7679 22.3103 64.4115 22.8633 66.3484 22.8633V20.8633ZM62.9657 19.6796C62.2117 18.9256 61.782 17.8491 61.782 16.3203H59.782C59.782 18.2446 60.3367 19.8791 61.5515 21.0938L62.9657 19.6796ZM78.7516 19.6016L79.5419 18.9889L79.2416 18.6016H78.7516V19.6016ZM78.7047 19.6016V18.6016H77.7047V19.6016H78.7047ZM78.7047 21.5V22.5H79.7047V21.5H78.7047ZM77.3102 21.5H76.3102V22.5H77.3102V21.5ZM77.3102 3.98047V2.98047H76.3102V3.98047H77.3102ZM78.7516 3.98047H79.7516V2.98047H78.7516V3.98047ZM78.7516 10.6719H77.7516V11.6719H78.7516V10.6719ZM78.7984 10.6719V11.6719H79.2952L79.5953 11.2761L78.7984 10.6719ZM80.943 9.01953L81.3446 9.93533L81.3484 9.93367L80.943 9.01953ZM87.2477 9.28906L86.75 10.1565L86.758 10.161L87.2477 9.28906ZM89.65 11.6914L88.7805 12.1854L88.7834 12.1904L89.65 11.6914ZM89.65 18.6523L88.7834 18.1534L88.7822 18.1555L89.65 18.6523ZM87.2242 21.0312L87.7007 21.9104L87.7031 21.9091L87.2242 21.0312ZM81.2594 10.2734L81.6848 11.1785L81.6921 11.175L81.2594 10.2734ZM78.7516 16.5312L79.751 16.5649L79.7516 16.5481V16.5312H78.7516ZM79.3961 18.5234L78.583 19.1056L78.5865 19.1104L79.3961 18.5234ZM81.2359 20.0352L80.7923 20.9314L80.7997 20.935L81.2359 20.0352ZM83.6969 20.5625V19.5625H83.6834L83.6699 19.5629L83.6969 20.5625ZM78.7516 18.6016H78.7047V20.6016H78.7516V18.6016ZM77.7047 19.6016V21.5H79.7047V19.6016H77.7047ZM78.7047 20.5H77.3102V22.5H78.7047V20.5ZM78.3102 21.5V3.98047H76.3102V21.5H78.3102ZM77.3102 4.98047H78.7516V2.98047H77.3102V4.98047ZM77.7516 3.98047V10.6719H79.7516V3.98047H77.7516ZM78.7516 11.6719H78.7984V9.67188H78.7516V11.6719ZM79.5953 11.2761C80.0222 10.713 80.5957 10.2638 81.3446 9.93532L80.5413 8.10374C79.509 8.55652 78.6528 9.20886 78.0016 10.0677L79.5953 11.2761ZM81.3484 9.93367C82.1081 9.59673 82.9529 9.42188 83.8961 9.42188V7.42188C82.6987 7.42188 81.5747 7.64546 80.5376 8.10539L81.3484 9.93367ZM83.8961 9.42188C84.9582 9.42188 85.9022 9.67012 86.7501 10.1565L87.7452 8.42165C86.5775 7.75176 85.2872 7.42188 83.8961 7.42188V9.42188ZM86.758 10.161C87.612 10.6405 88.2828 11.3093 88.7805 12.1854L90.5195 11.1974C89.8454 10.011 88.9146 9.07822 87.7373 8.41713L86.758 10.161ZM88.7834 12.1904C89.2842 13.0601 89.5406 14.0347 89.5406 15.1367H91.5406C91.5406 13.7075 91.2033 12.3852 90.5166 11.1924L88.7834 12.1904ZM89.5406 15.1367C89.5406 16.2926 89.281 17.2892 88.7834 18.1534L90.5166 19.1513C91.2066 17.953 91.5406 16.6058 91.5406 15.1367H89.5406ZM88.7822 18.1555C88.2878 19.019 87.6135 19.6798 86.7454 20.1534L87.7031 21.9091C88.8974 21.2577 89.8404 20.3325 90.5178 19.1492L88.7822 18.1555ZM86.7477 20.1521C85.8849 20.6197 84.8991 20.8633 83.7672 20.8633V22.8633C85.1977 22.8633 86.5166 22.5522 87.7007 21.9104L86.7477 20.1521ZM83.7672 20.8633C82.8623 20.8633 82.0452 20.6873 81.3024 20.3455L80.4663 22.1623C81.4892 22.633 82.594 22.8633 83.7672 22.8633V20.8633ZM81.3024 20.3455C80.5501 19.9993 79.9725 19.5442 79.5419 18.9889L77.9613 20.2143C78.6088 21.0495 79.453 21.696 80.4663 22.1623L81.3024 20.3455ZM90.0992 15.1367C90.0992 13.3081 89.5193 11.738 88.3091 10.5183L86.8894 11.927C87.6791 12.7229 88.0992 13.7622 88.0992 15.1367H90.0992ZM88.3091 10.5183C87.1067 9.30649 85.5825 8.71094 83.8141 8.71094V10.7109C85.0925 10.7109 86.0918 11.1232 86.8894 11.927L88.3091 10.5183ZM83.8141 8.71094C82.7522 8.71094 81.7515 8.92799 80.8266 9.37191L81.6921 11.175C82.3298 10.8689 83.0322 10.7109 83.8141 10.7109V8.71094ZM80.834 9.36841C79.9201 9.79796 79.1659 10.3925 78.6086 11.1649L80.2305 12.3351C80.5638 11.8732 81.0362 11.4833 81.6847 11.1785L80.834 9.36841ZM78.6086 11.1649C78.0495 11.9397 77.7516 12.806 77.7516 13.7422H79.7516C79.7516 13.2565 79.8989 12.7947 80.2305 12.3351L78.6086 11.1649ZM77.7516 13.7422V16.5312H79.7516V13.7422H77.7516ZM77.7521 16.4976C77.7204 17.4391 78.0177 18.3161 78.583 19.1056L80.2091 17.9413C79.8683 17.4652 79.7359 17.014 79.751 16.5649L77.7521 16.4976ZM78.5865 19.1104C79.1455 19.8815 79.891 20.4853 80.7924 20.9314L81.6795 19.1389C81.034 18.8194 80.5529 18.4154 80.2057 17.9365L78.5865 19.1104ZM80.7997 20.935C81.7187 21.3806 82.6981 21.5899 83.7239 21.5621L83.6699 19.5629C82.9613 19.582 82.3001 19.4398 81.6722 19.1353L80.7997 20.935ZM83.6969 21.5625C85.5207 21.5625 87.0868 20.9935 88.3007 19.7986L86.8977 18.3733C86.1116 19.1471 85.0762 19.5625 83.6969 19.5625V21.5625ZM88.3007 19.7986C89.525 18.5935 90.0992 17.0025 90.0992 15.1367H88.0992C88.0992 16.5678 87.6735 17.6096 86.8977 18.3733L88.3007 19.7986ZM95.7367 10.0039H96.7367V9.00391H95.7367V10.0039ZM92.9945 10.0039H91.9945V11.0039H92.9945V10.0039ZM92.9945 8.78516V7.78516H91.9945V8.78516H92.9945ZM95.7367 8.78516V9.78516H96.7367V8.78516H95.7367ZM96.4398 5.48047L95.7508 4.75574L95.7448 4.76148L96.4398 5.48047ZM101.256 4.80078H102.256V3.80078H101.256V4.80078ZM101.256 6.08984V7.08984H102.256V6.08984H101.256ZM97.5297 6.44141L98.2368 7.14851L98.2428 7.14252L98.2487 7.13643L97.5297 6.44141ZM97.1898 8.78516H96.1898V9.78516H97.1898V8.78516ZM101.76 8.78516H102.76V7.78516H101.76V8.78516ZM101.76 10.0039V11.0039H102.76V10.0039H101.76ZM97.1898 10.0039V9.00391H96.1898V10.0039H97.1898ZM97.1898 21.5V22.5H98.1898V21.5H97.1898ZM95.7367 21.5H94.7367V22.5H95.7367V21.5ZM95.7367 9.00391H92.9945V11.0039H95.7367V9.00391ZM93.9945 10.0039V8.78516H91.9945V10.0039H93.9945ZM92.9945 9.78516H95.7367V7.78516H92.9945V9.78516ZM96.7367 8.78516V7.39062H94.7367V8.78516H96.7367ZM96.7367 7.39062C96.7367 6.76723 96.9086 6.41818 97.1349 6.19946L95.7448 4.76148C95.0336 5.449 94.7367 6.3734 94.7367 7.39062H96.7367ZM97.1289 6.20517C97.3589 5.98653 97.766 5.80078 98.5141 5.80078V3.80078C97.4496 3.80078 96.474 4.06816 95.7508 4.75577L97.1289 6.20517ZM98.5141 5.80078H101.256V3.80078H98.5141V5.80078ZM100.256 4.80078V6.08984H102.256V4.80078H100.256ZM101.256 5.08984H98.6078V7.08984H101.256V5.08984ZM98.6078 5.08984C97.9815 5.08984 97.3033 5.23676 96.8107 5.74638L98.2487 7.13643C98.2092 7.1773 98.2498 7.08984 98.6078 7.08984V5.08984ZM96.8226 5.7343C96.3314 6.22549 96.1898 6.89192 96.1898 7.50781H98.1898C98.1898 7.15495 98.2749 7.11045 98.2368 7.14851L96.8226 5.7343ZM96.1898 7.50781V8.78516H98.1898V7.50781H96.1898ZM97.1898 9.78516H101.76V7.78516H97.1898V9.78516ZM100.76 8.78516V10.0039H102.76V8.78516H100.76ZM101.76 9.00391H97.1898V11.0039H101.76V9.00391ZM96.1898 10.0039V21.5H98.1898V10.0039H96.1898ZM97.1898 20.5H95.7367V22.5H97.1898V20.5ZM96.7367 21.5V10.0039H94.7367V21.5H96.7367ZM105.116 19.9531L104.414 20.6645L104.416 20.6666L105.116 19.9531ZM105.116 10.332L105.817 11.0456L105.817 11.0456L105.116 10.332ZM110.027 8.42188V9.42188H110.036L110.045 9.4217L110.027 8.42188ZM115.98 11.7031L115.111 12.1993L115.114 12.2042L115.98 11.7031ZM116.847 15.1367L115.847 15.118L115.847 15.1367L115.847 15.1555L116.847 15.1367ZM115.98 18.582L115.113 18.0838L115.111 18.0859L115.98 18.582ZM110.027 21.8633L110.045 20.8635L110.036 20.8633H110.027V21.8633ZM113.894 11.2227L113.184 11.927L113.189 11.9325L113.894 11.2227ZM105.819 19.2417C104.734 18.1701 104.183 16.8274 104.183 15.1367H102.183C102.183 17.321 102.92 19.1893 104.414 20.6645L105.819 19.2417ZM104.183 15.1367C104.183 13.446 104.734 12.1086 105.817 11.0456L104.416 9.61847C102.92 11.0867 102.183 12.9524 102.183 15.1367H104.183ZM105.817 11.0456C106.91 9.97265 108.287 9.42188 110.027 9.42188V7.42188C107.813 7.42188 105.917 8.14453 104.416 9.61851L105.817 11.0456ZM110.045 9.4217C111.144 9.40136 112.128 9.6437 113.021 10.1398L113.993 8.39147C112.776 7.71567 111.441 7.39551 110.008 7.42205L110.045 9.4217ZM113.021 10.1398C113.918 10.6378 114.609 11.3201 115.111 12.1993L116.848 11.207C116.163 10.008 115.206 9.06534 113.993 8.39147L113.021 10.1398ZM115.114 12.2042C115.621 13.0788 115.867 14.0424 115.847 15.118L117.847 15.1555C117.873 13.7311 117.542 12.4056 116.845 11.2021L115.114 12.2042ZM115.847 15.1555C115.867 16.231 115.621 17.1998 115.113 18.0838L116.847 19.0803C117.542 17.8705 117.873 16.5424 117.847 15.118L115.847 15.1555ZM115.111 18.0859C114.609 18.965 113.918 19.6474 113.021 20.1454L113.993 21.8937C115.206 21.2198 116.163 20.2772 116.848 19.0782L115.111 18.0859ZM113.021 20.1454C112.128 20.6415 111.144 20.8838 110.045 20.8635L110.008 22.8631C111.441 22.8896 112.776 22.5695 113.993 21.8937L113.021 20.1454ZM110.027 20.8633C108.287 20.8633 106.91 20.3125 105.817 19.2396L104.416 20.6666C105.917 22.1406 107.813 22.8633 110.027 22.8633V20.8633ZM114.601 19.7696C115.821 18.5494 116.405 16.974 116.405 15.1367H114.405C114.405 16.5182 113.982 17.56 113.187 18.3554L114.601 19.7696ZM116.405 15.1367C116.405 13.2996 115.821 11.7262 114.598 10.5128L113.189 11.9325C113.982 12.7191 114.405 13.7551 114.405 15.1367H116.405ZM114.604 10.5183C113.394 9.29931 111.839 8.71094 110.027 8.71094V10.7109C111.371 10.7109 112.393 11.1304 113.184 11.927L114.604 10.5183ZM110.027 8.71094C108.221 8.71094 106.665 9.30015 105.443 10.5128L106.852 11.9325C107.661 11.1295 108.692 10.7109 110.027 10.7109V8.71094ZM105.443 10.5128C104.215 11.7316 103.624 13.3034 103.624 15.1367H105.624C105.624 13.7669 106.049 12.7294 106.852 11.9325L105.443 10.5128ZM103.624 15.1367C103.624 16.97 104.215 18.5419 105.443 19.7606L106.852 18.3409C106.049 17.5441 105.624 16.5065 105.624 15.1367H103.624ZM105.443 19.7606C106.665 20.9733 108.221 21.5625 110.027 21.5625V19.5625C108.692 19.5625 107.661 19.1439 106.852 18.3409L105.443 19.7606ZM110.027 21.5625C111.836 21.5625 113.391 20.9797 114.601 19.7696L113.187 18.3554C112.397 19.1453 111.373 19.5625 110.027 19.5625V21.5625ZM120.965 3.98047V2.98047H119.965V3.98047H120.965ZM122.406 3.98047H123.406V2.98047H122.406V3.98047ZM122.406 21.5V22.5H123.406V21.5H122.406ZM120.965 21.5H119.965V22.5H120.965V21.5ZM120.965 4.98047H122.406V2.98047H120.965V4.98047ZM121.406 3.98047V21.5H123.406V3.98047H121.406ZM122.406 20.5H120.965V22.5H122.406V20.5ZM121.965 21.5V3.98047H119.965V21.5H121.965ZM127.016 8.78516V7.78516H126.016V8.78516H127.016ZM128.458 8.78516H129.458V7.78516H128.458V8.78516ZM128.458 21.5V22.5H129.458V21.5H128.458ZM127.016 21.5H126.016V22.5H127.016V21.5ZM126.782 4.67188V3.67188H125.782V4.67188H126.782ZM128.704 4.67188H129.704V3.67188H128.704V4.67188ZM128.704 6.5V7.5H129.704V6.5H128.704ZM126.782 6.5H125.782V7.5H126.782V6.5ZM127.016 9.78516H128.458V7.78516H127.016V9.78516ZM127.458 8.78516V21.5H129.458V8.78516H127.458ZM128.458 20.5H127.016V22.5H128.458V20.5ZM128.016 21.5V8.78516H126.016V21.5H128.016ZM126.782 5.67188H128.704V3.67188H126.782V5.67188ZM127.704 4.67188V6.5H129.704V4.67188H127.704ZM128.704 5.5H126.782V7.5H128.704V5.5ZM127.782 6.5V4.67188H125.782V6.5H127.782ZM134.521 19.9531L133.818 20.6645L133.82 20.6666L134.521 19.9531ZM134.521 10.332L135.222 11.0456L135.222 11.0456L134.521 10.332ZM139.431 8.42188V9.42188H139.441L139.45 9.4217L139.431 8.42188ZM145.384 11.7031L144.516 12.1993L144.519 12.2042L145.384 11.7031ZM146.252 15.1367L145.252 15.118L145.251 15.1367L145.252 15.1555L146.252 15.1367ZM145.384 18.582L144.517 18.0838L144.516 18.0859L145.384 18.582ZM139.431 21.8633L139.45 20.8635L139.441 20.8633H139.431V21.8633ZM143.298 11.2227L142.589 11.927L142.594 11.9325L143.298 11.2227ZM135.224 19.2417C134.139 18.1701 133.588 16.8274 133.588 15.1367H131.588C131.588 17.321 132.325 19.1893 133.818 20.6645L135.224 19.2417ZM133.588 15.1367C133.588 13.446 134.139 12.1086 135.222 11.0456L133.821 9.61847C132.325 11.0867 131.588 12.9524 131.588 15.1367H133.588ZM135.222 11.0456C136.314 9.97265 137.692 9.42188 139.431 9.42188V7.42188C137.218 7.42188 135.322 8.14453 133.82 9.61851L135.222 11.0456ZM139.45 9.4217C140.548 9.40136 141.533 9.6437 142.426 10.1398L143.397 8.39147C142.181 7.71567 140.846 7.39551 139.413 7.42205L139.45 9.4217ZM142.426 10.1398C143.322 10.6378 144.014 11.3201 144.516 12.1993L146.253 11.207C145.567 10.008 144.61 9.06534 143.397 8.39147L142.426 10.1398ZM144.519 12.2042C145.025 13.0788 145.272 14.0424 145.252 15.118L147.251 15.1555C147.278 13.7311 146.947 12.4056 146.25 11.2021L144.519 12.2042ZM145.252 15.1555C145.272 16.231 145.025 17.1998 144.517 18.0838L146.251 19.0803C146.947 17.8705 147.278 16.5424 147.251 15.118L145.252 15.1555ZM144.516 18.0859C144.014 18.965 143.322 19.6474 142.426 20.1454L143.397 21.8937C144.61 21.2198 145.567 20.2772 146.253 19.0782L144.516 18.0859ZM142.426 20.1454C141.533 20.6415 140.548 20.8838 139.45 20.8635L139.413 22.8631C140.846 22.8896 142.181 22.5695 143.397 21.8937L142.426 20.1454ZM139.431 20.8633C137.692 20.8633 136.314 20.3125 135.222 19.2396L133.82 20.6666C135.322 22.1406 137.218 22.8633 139.431 22.8633V20.8633ZM144.006 19.7696C145.226 18.5494 145.81 16.974 145.81 15.1367H143.81C143.81 16.5182 143.387 17.56 142.591 18.3554L144.006 19.7696ZM145.81 15.1367C145.81 13.2996 145.226 11.7262 144.003 10.5128L142.594 11.9325C143.387 12.7191 143.81 13.7551 143.81 15.1367H145.81ZM144.008 10.5183C142.799 9.29931 141.243 8.71094 139.431 8.71094V10.7109C140.775 10.7109 141.798 11.1304 142.589 11.927L144.008 10.5183ZM139.431 8.71094C137.625 8.71094 136.07 9.30015 134.848 10.5128L136.257 11.9325C137.066 11.1295 138.097 10.7109 139.431 10.7109V8.71094ZM134.848 10.5128C133.62 11.7316 133.029 13.3034 133.029 15.1367H135.029C135.029 13.7669 135.454 12.7294 136.257 11.9325L134.848 10.5128ZM133.029 15.1367C133.029 16.97 133.62 18.5419 134.848 19.7606L136.257 18.3409C135.454 17.5441 135.029 16.5065 135.029 15.1367H133.029ZM134.848 19.7606C136.07 20.9733 137.625 21.5625 139.431 21.5625V19.5625C138.097 19.5625 137.066 19.1439 136.257 18.3409L134.848 19.7606ZM139.431 21.5625C141.241 21.5625 142.795 20.9797 144.006 19.7696L142.591 18.3554C141.801 19.1453 140.778 19.5625 139.431 19.5625V21.5625Z" fill="white" mask="url(#path-2-outside-1_432_2025)"/>
<rect x="152.25" y="2.75" width="7.5" height="7.5" rx="3.75" stroke="white" stroke-width="0.5"/>
<path d="M157.366 6H156.926C156.9 5.87334 156.855 5.76207 156.789 5.66619C156.725 5.57031 156.647 5.48982 156.555 5.42472C156.464 5.35843 156.363 5.30871 156.251 5.27557C156.14 5.24242 156.024 5.22585 155.903 5.22585C155.683 5.22585 155.484 5.28149 155.305 5.39276C155.127 5.50402 154.986 5.66797 154.881 5.88459C154.777 6.10121 154.724 6.36695 154.724 6.68182C154.724 6.99669 154.777 7.26243 154.881 7.47905C154.986 7.69567 155.127 7.85961 155.305 7.97088C155.484 8.08215 155.683 8.13778 155.903 8.13778C156.024 8.13778 156.14 8.12121 156.251 8.08807C156.363 8.05492 156.464 8.0058 156.555 7.9407C156.647 7.87441 156.725 7.79332 156.789 7.69744C156.855 7.60038 156.9 7.48911 156.926 7.36364H157.366C157.333 7.54948 157.273 7.71579 157.185 7.86257C157.098 8.00935 156.989 8.13423 156.859 8.23722C156.728 8.33902 156.582 8.41655 156.42 8.46982C156.259 8.52308 156.087 8.54972 155.903 8.54972C155.593 8.54972 155.317 8.47396 155.076 8.32244C154.835 8.17093 154.645 7.95549 154.506 7.67614C154.368 7.39678 154.298 7.06534 154.298 6.68182C154.298 6.2983 154.368 5.96686 154.506 5.6875C154.645 5.40814 154.835 5.19271 155.076 5.04119C155.317 4.88968 155.593 4.81392 155.903 4.81392C156.087 4.81392 156.259 4.84055 156.42 4.89382C156.582 4.94709 156.728 5.02521 156.859 5.1282C156.989 5.23 157.098 5.35428 157.185 5.50107C157.273 5.64666 157.333 5.81297 157.366 6Z" fill="white"/>
</svg>
