<svg width="244" height="244" viewBox="0 0 244 244" fill="none" xmlns="http://www.w3.org/2000/svg">
<path d="M116.598 242.766L116.499 244L107.877 243.304L107.977 242.07L111.591 242.362L112.42 232.107L113.812 232.219L112.984 242.474L116.598 242.766Z" fill="white"/>
<path d="M98.8079 230.111L96.0478 241.302L89.2896 239.638L89.5861 238.435L94.9883 239.766L95.9209 235.985L90.8686 234.74L91.1651 233.538L96.2174 234.782L97.1554 230.979L91.6657 229.627L91.9622 228.425L98.8079 230.111Z" fill="white"/>
<path d="M72.8641 230.598C72.7026 231.149 72.7811 231.664 73.0996 232.142C73.4181 232.62 73.8985 232.996 74.541 233.27C75.0107 233.47 75.4541 233.569 75.8711 233.567C76.2847 233.564 76.6466 233.471 76.9568 233.289C77.2635 233.106 77.489 232.845 77.6332 232.507C77.7539 232.224 77.7903 231.952 77.7424 231.69C77.6896 231.431 77.5848 231.189 77.428 230.963C77.2698 230.741 77.0917 230.537 76.8936 230.35C76.6941 230.167 76.5069 230.008 76.3321 229.873L75.3781 229.124C75.1327 228.934 74.868 228.703 74.5839 228.431C74.2964 228.157 74.0443 227.844 73.8277 227.491C73.6061 227.14 73.4662 226.75 73.4081 226.321C73.3501 225.893 73.427 225.43 73.6389 224.933C73.8831 224.36 74.2541 223.906 74.7518 223.571C75.246 223.235 75.8379 223.053 76.5275 223.024C77.2137 222.994 77.9643 223.153 78.7794 223.5C79.5393 223.824 80.145 224.226 80.5966 224.708C81.0447 225.189 81.3342 225.716 81.4651 226.289C81.5925 226.862 81.5533 227.446 81.3476 228.044L80.0213 227.479C80.1574 227.064 80.164 226.675 80.041 226.313C79.913 225.953 79.695 225.631 79.3867 225.349C79.0736 225.069 78.7064 224.839 78.285 224.66C77.7945 224.451 77.3203 224.343 76.8623 224.336C76.4029 224.332 75.9981 224.424 75.648 224.614C75.2964 224.807 75.0382 225.096 74.8734 225.483C74.7233 225.835 74.6996 226.163 74.8023 226.468C74.905 226.773 75.0875 227.063 75.3499 227.338C75.6122 227.612 75.9078 227.881 76.2367 228.143L77.3834 229.072C78.1107 229.663 78.622 230.283 78.9172 230.931C79.2124 231.578 79.2077 232.259 78.9031 232.974C78.65 233.568 78.2686 234.017 77.7591 234.322C77.2446 234.629 76.6622 234.789 76.012 234.802C75.3569 234.816 74.6909 234.68 74.0139 234.391C73.33 234.1 72.7744 233.719 72.347 233.247C71.9181 232.779 71.638 232.268 71.5067 231.715C71.3719 231.16 71.4099 230.611 71.6207 230.069L72.8641 230.598Z" fill="white"/>
<path d="M61.0913 226.425L60.4291 227.472L53.1183 222.851L53.7804 221.805L56.8457 223.742L62.3476 215.046L63.528 215.792L58.0261 224.488L61.0913 226.425Z" fill="white"/>
<path d="M40.5532 212.909L48.2011 204.282L49.2465 205.207L41.5985 213.835L40.5532 212.909Z" fill="white"/>
<path d="M30.6484 203.106L29.5941 201.815L34.5309 192.73L34.4455 192.625L24.5509 195.642L23.4967 194.352L32.4304 187.062L33.2567 188.073L26.4692 193.612L26.5404 193.699L35.6073 190.951L36.4051 191.927L31.897 200.256L31.9683 200.343L38.7558 194.805L39.5821 195.816L30.6484 203.106Z" fill="white"/>
<path d="M15.9606 182.454L25.9487 176.691L26.647 177.9L16.6589 183.663L15.9606 182.454Z" fill="white"/>
<path d="M6.04373 160.461L16.8275 156.373L17.3068 157.636L11.0684 166.718L11.1083 166.824L19.5753 163.614L20.0705 164.919L9.28677 169.007L8.8075 167.744L15.0589 158.633L15.019 158.528L6.53099 161.745L6.04373 160.461Z" fill="white"/>
<path d="M2.28251 145.783L13.5827 143.477L13.862 144.845L2.56186 147.151L2.28251 145.783Z" fill="white"/>
<path d="M11.6935 129.369L11.7524 130.831L0.0580495 127.066L0 125.626L11.3534 120.933L11.4123 122.395L1.85032 126.228L1.85395 126.318L11.6935 129.369ZM7.1702 129.01L6.93257 123.116L8.17048 123.067L8.40812 128.96L7.1702 129.01Z" fill="white"/>
<path d="M12.0007 111.166L0.551538 109.777L0.71988 108.391L10.9391 109.631L11.5853 104.312L12.8152 104.462L12.0007 111.166Z" fill="white"/>
<path d="M27.9083 54.0794L28.928 54.7827L26.0616 58.9329L25.042 58.2295L27.9083 54.0794Z" fill="white"/>
<path d="M62.0396 17.1543L61.4638 16.0579L69.123 12.0405L69.6987 13.1368L66.4875 14.8212L71.2715 23.931L70.0348 24.5796L65.2508 15.4699L62.0396 17.1543Z" fill="white"/>
<path d="M83.5277 18.4524L79.8755 7.51922L83.5719 6.28591C84.4266 6.00075 85.1768 5.9126 85.8227 6.02146C86.4674 6.12676 87.006 6.38813 87.4383 6.80559C87.8707 7.22304 88.1944 7.75385 88.4096 8.39803C88.6248 9.0422 88.6838 9.65738 88.5868 10.2436C88.4897 10.8297 88.2163 11.3561 87.7665 11.8226C87.3156 12.2855 86.6664 12.6584 85.8188 12.9412L82.8275 13.9392L82.428 12.7434L85.3766 11.7596C85.9607 11.5648 86.4022 11.3225 86.7012 11.0329C87.0038 10.742 87.183 10.4133 87.2386 10.0466C87.2966 9.67523 87.2525 9.27065 87.1062 8.83289C86.96 8.39514 86.7503 8.03988 86.4771 7.7671C86.2039 7.49433 85.8578 7.32898 85.4387 7.27103C85.0184 7.20953 84.5126 7.27739 83.9215 7.47463L81.5925 8.25169L84.8524 18.0104L83.5277 18.4524ZM87.0364 11.8229L91.3692 15.8361L89.8308 16.3494L85.5407 12.322L87.0364 11.8229Z" fill="white"/>
<path d="M106.1 1.06224L107.479 0.838342L108.704 8.37124C108.83 9.14897 108.76 9.87317 108.492 10.5438C108.228 11.2102 107.793 11.7731 107.187 12.2327C106.58 12.6886 105.83 12.989 104.937 13.1341C104.044 13.2791 103.237 13.2315 102.517 12.9911C101.797 12.747 101.204 12.351 100.738 11.8033C100.276 11.2512 99.9812 10.5862 99.8548 9.80851L98.6298 2.27562L100.008 2.05172L101.215 9.47351C101.306 10.029 101.508 10.5036 101.823 10.8972C102.138 11.2871 102.541 11.5693 103.034 11.7441C103.529 11.9145 104.094 11.9482 104.727 11.8453C105.361 11.7423 105.886 11.5317 106.302 11.2132C106.717 10.891 107.011 10.4956 107.182 10.0269C107.356 9.55383 107.398 9.03955 107.307 8.48403L106.1 1.06224Z" fill="white"/>
<path d="M124.711 3.03918C124.644 2.46887 124.369 2.02612 123.889 1.71095C123.408 1.39577 122.819 1.23819 122.121 1.23819C121.61 1.23819 121.163 1.32073 120.78 1.48582C120.401 1.65091 120.105 1.87791 119.891 2.16682C119.68 2.45573 119.575 2.78404 119.575 3.15174C119.575 3.45941 119.648 3.72394 119.795 3.94531C119.945 4.16293 120.136 4.3449 120.369 4.49124C120.602 4.63381 120.846 4.752 121.101 4.84581C121.357 4.93586 121.591 5.00902 121.805 5.0653L122.977 5.38048C123.277 5.45927 123.611 5.56808 123.979 5.70691C124.351 5.84573 124.705 6.03521 125.043 6.27535C125.385 6.51173 125.667 6.81565 125.888 7.1871C126.11 7.55856 126.22 8.01443 126.22 8.55473C126.22 9.17758 126.057 9.74039 125.73 10.2432C125.408 10.7459 124.934 11.1455 124.311 11.442C123.692 11.7384 122.939 11.8866 122.053 11.8866C121.227 11.8866 120.512 11.7534 119.907 11.487C119.307 11.2206 118.834 10.8491 118.488 10.3726C118.147 9.8961 117.953 9.34267 117.908 8.71232H119.35C119.387 9.14756 119.534 9.50776 119.789 9.79292C120.048 10.0743 120.375 10.2844 120.769 10.4233C121.167 10.5583 121.595 10.6259 122.053 10.6259C122.586 10.6259 123.065 10.5396 123.489 10.367C123.913 10.1906 124.249 9.94675 124.497 9.63533C124.745 9.32016 124.869 8.95245 124.869 8.53222C124.869 8.14951 124.762 7.83809 124.548 7.59795C124.334 7.35782 124.052 7.16271 123.703 7.01263C123.354 6.86255 122.977 6.73122 122.571 6.61866L121.152 6.21344C120.251 5.95454 119.538 5.58497 119.012 5.1047C118.486 4.62443 118.224 3.99596 118.224 3.21928C118.224 2.57392 118.398 2.01111 118.747 1.53085C119.1 1.04683 119.573 0.671622 120.166 0.405224C120.763 0.135075 121.43 0 122.166 0C122.909 0 123.57 0.133199 124.148 0.399596C124.726 0.662241 125.184 1.02244 125.522 1.48019C125.864 1.93795 126.044 2.45761 126.063 3.03918H124.711Z" fill="white"/>
<path d="M137.128 2.18684L137.327 0.964687L145.865 2.35141L145.666 3.57356L142.086 2.99215L140.435 13.1471L139.056 12.9232L140.708 2.76825L137.128 2.18684Z" fill="white"/>
<path d="M153.842 16.2317L157.495 5.29852L164.097 7.50137L163.705 8.67583L158.427 6.91498L157.193 10.6092L162.129 12.256L161.736 13.4305L156.801 11.7837L155.56 15.4992L160.923 17.2886L160.53 18.4631L153.842 16.2317Z" fill="white"/>
<path d="M172.717 23.9117L169.566 22.2587L174.926 12.0526L178.217 13.7788C179.208 14.2984 179.948 14.9474 180.438 15.7257C180.93 16.5007 181.164 17.3671 181.14 18.3249C181.118 19.2794 180.829 20.2849 180.275 21.3414C179.716 22.4046 179.046 23.2205 178.264 23.7891C177.484 24.3545 176.623 24.6531 175.682 24.6849C174.743 24.7134 173.755 24.4557 172.717 23.9117ZM171.378 21.811L173.213 22.7735C174.058 23.2164 174.843 23.4206 175.569 23.3862C176.295 23.3518 176.953 23.1055 177.541 22.6471C178.129 22.1887 178.642 21.5443 179.078 20.7137C179.511 19.8898 179.748 19.1098 179.791 18.3739C179.836 17.6347 179.675 16.9652 179.307 16.3655C178.941 15.7625 178.359 15.2518 177.561 14.8333L175.587 13.7976L171.378 21.811Z" fill="white"/>
<path d="M199.118 42.835L207.436 34.8504L210.229 37.7566C210.785 38.3357 211.144 38.9095 211.305 39.478C211.469 40.0438 211.472 40.5799 211.313 41.0862C211.156 41.5899 210.875 42.0367 210.469 42.4266C210.112 42.7697 209.756 42.9894 209.4 43.0857C209.048 43.1848 208.705 43.1965 208.372 43.1208C208.042 43.0478 207.73 42.9234 207.436 42.7477L207.355 42.8256C207.583 43.0956 207.739 43.4371 207.824 43.8501C207.908 44.2631 207.882 44.7018 207.745 45.1661C207.609 45.6304 207.321 46.073 206.882 46.4941C206.465 46.8944 205.999 47.1596 205.484 47.2899C204.969 47.4202 204.418 47.3746 203.83 47.1531C203.242 46.9317 202.634 46.4935 202.005 45.8386L199.118 42.835ZM200.979 42.9839L202.898 44.9809C203.53 45.6385 204.106 45.9831 204.626 46.0148C205.151 46.0466 205.596 45.8871 205.962 45.5362C206.243 45.2659 206.434 44.9446 206.535 44.5725C206.638 44.1977 206.634 43.8089 206.522 43.406C206.414 43.0004 206.185 42.6163 205.837 42.2537L203.87 40.208L200.979 42.9839ZM204.748 39.3659L206.542 41.233C206.834 41.5361 207.156 41.7522 207.509 41.8814C207.865 42.0133 208.22 42.047 208.574 41.9824C208.931 41.9206 209.256 41.7494 209.549 41.4687C209.914 41.1178 210.102 40.693 210.112 40.1943C210.125 39.693 209.866 39.1664 209.335 38.6143L207.51 36.7147L204.748 39.3659Z" fill="white"/>
<path d="M219.699 48.7642L220.607 50.0796L217.994 55.767L218.071 55.8781L224.318 55.4526L225.227 56.768L217.279 57.1898L213.368 59.8882L212.575 58.7395L216.486 56.0411L219.699 48.7642Z" fill="white"/>
<path d="M237.154 93.8386L236.766 92.4979C237.129 92.3069 237.427 92.0701 237.662 91.7873C237.898 91.5081 238.074 91.1993 238.191 90.8608C238.312 90.5248 238.375 90.1728 238.377 89.8048C238.38 89.4368 238.328 89.069 238.222 88.7014C238.027 88.0311 237.682 87.4729 237.185 87.0268C236.69 86.5844 236.065 86.2983 235.312 86.1685C234.561 86.0424 233.705 86.1182 232.746 86.3959C231.787 86.6736 231.023 87.0665 230.455 87.5747C229.888 88.0864 229.514 88.6617 229.331 89.3004C229.15 89.9427 229.156 90.5991 229.351 91.2694C229.457 91.637 229.61 91.9756 229.809 92.2851C230.008 92.5946 230.247 92.8595 230.526 93.0795C230.81 93.3022 231.126 93.4686 231.474 93.5786C231.827 93.6912 232.206 93.7318 232.612 93.7005L233 95.0412C232.405 95.1041 231.845 95.067 231.32 94.9297C230.796 94.7925 230.319 94.5711 229.891 94.2655C229.466 93.9588 229.101 93.5821 228.795 93.1353C228.491 92.6922 228.258 92.1913 228.096 91.6327C227.822 90.6884 227.81 89.7819 228.058 88.9131C228.307 88.0443 228.795 87.2758 229.524 86.6078C230.253 85.9398 231.202 85.4367 232.37 85.0985C233.538 84.7602 234.609 84.6788 235.582 84.8541C236.556 85.0294 237.38 85.4178 238.054 86.0194C238.729 86.621 239.203 87.3939 239.477 88.3381C239.639 88.8967 239.709 89.4446 239.689 89.9817C239.67 90.5224 239.561 91.0364 239.362 91.5237C239.167 92.0099 238.884 92.451 238.515 92.8472C238.148 93.2423 237.695 93.5727 237.154 93.8386Z" fill="white"/>
<path d="M231.437 106.332L242.886 104.942L243.055 106.328L232.835 107.568L233.482 112.887L232.252 113.036L231.437 106.332Z" fill="white"/>
<path d="M243.944 127.669L232.42 127.205L232.476 125.81L244 126.274L243.944 127.669Z" fill="white"/>
<path d="M230.972 140.885L242.272 143.19L240.879 150.006L239.666 149.758L240.778 144.31L236.96 143.531L235.919 148.626L234.706 148.379L235.746 143.283L231.906 142.5L230.775 148.036L229.561 147.789L230.972 140.885Z" fill="white"/>
<path d="M234.295 170.178L223.512 166.091L223.991 164.828L234.686 162.164L234.726 162.059L226.259 158.85L226.755 157.544L237.538 161.632L237.059 162.895L226.334 165.571L226.295 165.677L234.783 168.894L234.295 170.178Z" fill="white"/>
<path d="M228.805 178.696L229.878 179.315L225.553 186.802L224.48 186.183L226.293 183.044L217.378 177.9L218.077 176.691L226.992 181.835L228.805 178.696Z" fill="white"/>
<path d="M212.651 199.438C213.136 199.747 213.652 199.815 214.201 199.642C214.749 199.469 215.244 199.113 215.685 198.572C216.008 198.177 216.227 197.779 216.341 197.378C216.453 196.98 216.465 196.607 216.376 196.258C216.285 195.913 216.097 195.624 215.812 195.391C215.574 195.197 215.322 195.086 215.058 195.059C214.794 195.038 214.532 195.071 214.272 195.159C214.014 195.249 213.768 195.363 213.534 195.501C213.303 195.642 213.097 195.777 212.919 195.908L211.933 196.615C211.682 196.798 211.387 196.987 211.046 197.185C210.704 197.384 210.333 197.539 209.933 197.649C209.533 197.764 209.12 197.79 208.692 197.726C208.264 197.663 207.84 197.46 207.422 197.119C206.939 196.725 206.606 196.242 206.423 195.671C206.237 195.103 206.227 194.485 206.391 193.815C206.553 193.148 206.915 192.471 207.475 191.785C207.997 191.146 208.553 190.676 209.142 190.377C209.728 190.08 210.315 189.949 210.903 189.983C211.488 190.02 212.039 190.22 212.556 190.584L211.645 191.7C211.284 191.454 210.912 191.34 210.529 191.357C210.147 191.379 209.778 191.499 209.421 191.717C209.065 191.939 208.742 192.228 208.452 192.583C208.115 192.995 207.879 193.42 207.744 193.858C207.613 194.298 207.589 194.712 207.674 195.101C207.762 195.492 207.968 195.821 208.294 196.086C208.591 196.328 208.9 196.443 209.221 196.429C209.542 196.415 209.872 196.32 210.209 196.145C210.546 195.97 210.886 195.761 211.23 195.518L212.442 194.676C213.212 194.142 213.95 193.823 214.655 193.72C215.359 193.617 216.012 193.811 216.614 194.302C217.115 194.71 217.44 195.202 217.592 195.776C217.744 196.355 217.735 196.958 217.567 197.586C217.399 198.219 217.082 198.82 216.617 199.39C216.146 199.965 215.625 200.393 215.053 200.672C214.484 200.953 213.915 201.08 213.347 201.052C212.776 201.027 212.259 200.838 211.796 200.485L212.651 199.438Z" fill="white"/>
<path d="M165.193 229.787L164.707 228.648L169.349 226.671L169.835 227.811L165.193 229.787Z" fill="white"/>
</svg>
