<svg width="104" height="80" viewBox="0 0 104 80" fill="none" xmlns="http://www.w3.org/2000/svg">
<path d="M0.972962 17.5803C0.972962 12.8482 2.83552 8.82597 6.56063 5.51352C10.2857 1.96447 14.6761 0.189941 19.7316 0.189941C21.8602 0.189941 24.1219 0.663148 26.5166 1.60956L26.1175 1.25466L28.5122 2.31937H28.9113C29.7096 2.79258 30.6408 3.38409 31.7051 4.0939C31.7051 4.3305 32.1043 4.80371 32.9025 5.51352C39.5545 11.4286 42.3483 20.3012 41.284 32.1314C40.2197 49.1669 30.1087 64.5461 10.9509 78.2691C9.88663 79.2155 8.68927 79.6887 7.35887 79.6887C5.23023 79.6887 3.50072 78.8606 2.17032 77.2044C-0.224396 74.3651 0.174723 71.7625 3.36768 69.3964C19.0664 58.0395 27.5809 45.7361 28.9113 32.4863C25.9844 34.1425 22.9245 34.9706 19.7316 34.9706C14.6761 34.9706 10.2857 33.3144 6.56063 30.002C2.83552 26.4529 0.972962 22.3124 0.972962 17.5803ZM62.8365 17.5803C62.8365 12.8482 64.699 8.82597 68.4241 5.51352C72.1492 1.96447 76.5396 0.189941 81.5951 0.189941C83.7237 0.189941 85.9854 0.663148 88.3801 1.60956L87.981 1.25466C88.7792 1.49126 89.5774 1.84617 90.3757 2.31937H90.7748C91.8391 2.79258 92.7704 3.38409 93.5686 4.0939C93.5686 4.3305 93.9678 4.80371 94.766 5.51352C101.418 11.4286 104.212 20.3012 103.148 32.1314C102.083 49.1669 91.9722 64.5461 72.8144 78.2691C71.7501 79.2155 70.5528 79.6887 69.2224 79.6887C67.0937 79.6887 65.4972 78.8606 64.4329 77.2044C61.7721 74.3651 62.0382 71.7625 65.2312 69.3964C80.9299 58.0395 89.4444 45.7361 90.7748 32.4863C87.8479 34.1425 84.788 34.9706 81.5951 34.9706C76.5396 34.9706 72.1492 33.3144 68.4241 30.002C64.699 26.4529 62.8365 22.3124 62.8365 17.5803Z" fill="#0047FF"/>
</svg>
